<?xml version="1.0" encoding="UTF-8"?>
<svg id="Layer_2" data-name="Layer 2" xmlns="http://www.w3.org/2000/svg" viewBox="0 0 382.95 400">
  <defs>
    <style>
      .cls-1 {
        fill: #d95436;
      }

      .cls-1, .cls-2 {
        stroke-width: 0px;
      }

      .cls-2 {
        fill: #000;
      }

      .cls-3 {
        opacity: .7;
      }
    </style>
  </defs>
  <g id="Design">
    <g>
      <g>
        <path class="cls-2" d="M40.37,292.82H11.82v13.1h25v9.89H11.82v23.88H0v-56.87h40.37v10.01Z"/>
        <path class="cls-2" d="M120.42,314.8h-27.66v14.64h31.53v10.24h-43.16v-56.95h41.77v10.08h-30.14v12.09h27.66v9.89Z"/>
        <path class="cls-2" d="M207.37,282.73v10.08h-17.04v46.87h-11.98v-46.87h-17.12v-10.08h46.13Z"/>
        <path class="cls-2" d="M286.95,335.43c-4.25,3.89-9.68,5.83-16.3,5.83-8.19,0-14.63-2.63-19.32-7.88-4.69-5.28-7.03-12.52-7.03-21.71,0-9.94,2.67-17.6,8-22.99,4.64-4.69,10.53-7.03,17.7-7.03,9.58,0,16.59,3.14,21.02,9.43,2.45,3.53,3.76,7.07,3.94,10.63h-11.9c-.77-2.73-1.76-4.79-2.97-6.18-2.16-2.47-5.37-3.71-9.62-3.71s-7.74,1.74-10.24,5.24c-2.5,3.49-3.75,8.43-3.75,14.82s1.32,11.17,3.96,14.35c2.64,3.18,5.99,4.77,10.06,4.77s7.35-1.36,9.54-4.1c1.21-1.47,2.22-3.67,3.01-6.61h11.78c-1.03,6.21-3.66,11.26-7.88,15.15Z"/>
        <path class="cls-2" d="M370.32,339.68v-25.42h-22.25v25.42h-11.78v-56.95h11.78v21.71h22.25v-21.71h11.82v56.95h-11.82Z"/>
      </g>
      <g>
        <path class="cls-2" d="M15.84,389.81c.8.95,1.2,2.18,1.2,3.7,0,2.07-.64,3.61-1.91,4.64-1.28,1.02-2.86,1.54-4.76,1.54H1.85c-.27,0-.5-.09-.68-.27-.18-.18-.27-.41-.27-.68v-20.26c0-.27.09-.5.27-.68.18-.18.41-.27.68-.27h8.39c1.77,0,3.16.49,4.16,1.46,1,.97,1.5,2.3,1.5,3.99,0,1.12-.27,2.12-.82,3.01-.55.89-1.33,1.53-2.34,1.93,1.27.32,2.3.95,3.1,1.9ZM12.85,380.39c-.69-.66-1.64-1-2.86-1H2.92v7.91h7.06c1.14-.02,2.07-.39,2.8-1.11.73-.72,1.09-1.74,1.09-3.07,0-1.16-.34-2.07-1.03-2.74ZM13.7,396.74c.88-.72,1.31-1.79,1.31-3.23s-.45-2.56-1.35-3.26c-.9-.7-2.05-1.04-3.47-1.04H2.92v8.61h7.34c1.41,0,2.56-.36,3.43-1.08Z"/>
        <path class="cls-2" d="M44.42,398.8c0,.27-.09.5-.28.66-.19.17-.41.25-.66.25-.21,0-.4-.06-.55-.17-.16-.12-.28-.27-.36-.46l-2.37-5.79h-10.29l-2.34,5.79c-.17.42-.45.63-.85.63-.3,0-.52-.07-.66-.22-.15-.15-.23-.35-.25-.6v-.1c0-.13.01-.22.03-.28l8.36-20.45c.17-.42.49-.63.95-.63.21,0,.4.06.55.17.16.12.28.27.36.46l8.32,20.35c.04.17.06.3.06.38ZM30.62,391.42h8.8l-4.43-10.82-4.37,10.82Z"/>
        <path class="cls-2" d="M71.49,377.78c.16.17.24.38.24.63v20.26c0,.32-.1.56-.28.74-.19.18-.42.27-.7.27-.15,0-.29-.03-.43-.1-.14-.06-.25-.14-.33-.22l-13.58-18.29v17.76c0,.23-.09.43-.27.6-.18.17-.39.25-.62.25-.25,0-.46-.08-.63-.25-.17-.17-.25-.37-.25-.6v-20.35c0-.3.09-.53.27-.7.18-.17.4-.25.65-.25.34,0,.59.12.76.35l13.64,18.39v-17.85c0-.25.08-.46.25-.63.17-.17.38-.25.63-.25.27,0,.49.08.65.25Z"/>
        <path class="cls-2" d="M100.91,398.8c0,.32-.11.56-.33.74-.22.18-.47.27-.74.27s-.51-.12-.7-.35l-8.83-11.11-4.3,4.05v6.3c-.02.29-.13.53-.32.71-.19.18-.42.27-.7.27-.3,0-.53-.09-.71-.27-.18-.18-.27-.42-.27-.71v-20.19c0-.29.09-.53.28-.71.19-.18.43-.27.73-.27s.53.09.71.27c.18.18.27.42.27.71v11.49l12.79-12.09c.19-.21.42-.32.7-.32.25,0,.47.1.65.29.18.19.27.4.27.63,0,.25-.1.47-.28.66l-8.29,7.75,8.86,11.2c.15.21.22.43.22.66Z"/>
        <path class="cls-2" d="M113.38,399.4c-.19.19-.42.28-.7.28-.3,0-.53-.09-.71-.27-.18-.18-.27-.42-.27-.71v-20.19c0-.29.09-.53.28-.71.19-.18.43-.27.73-.27.27,0,.51.09.7.28s.28.42.28.7v20.19c-.02.27-.13.51-.32.7Z"/>
        <path class="cls-2" d="M142.8,377.78c.16.17.24.38.24.63v20.26c0,.32-.1.56-.28.74-.19.18-.42.27-.7.27-.15,0-.29-.03-.43-.1-.14-.06-.25-.14-.33-.22l-13.58-18.29v17.76c0,.23-.09.43-.27.6-.18.17-.39.25-.62.25-.25,0-.46-.08-.63-.25-.17-.17-.25-.37-.25-.6v-20.35c0-.3.09-.53.27-.7.18-.17.4-.25.65-.25.34,0,.59.12.76.35l13.64,18.39v-17.85c0-.25.08-.46.25-.63.17-.17.38-.25.63-.25.27,0,.49.08.65.25Z"/>
        <path class="cls-2" d="M172.17,388.78c.18.18.27.41.27.68v7.63c0,.36-.16.64-.47.85-.95.65-2,1.16-3.16,1.52-1.16.36-2.34.54-3.54.54-2.15,0-4.09-.5-5.82-1.49-1.73-.99-3.09-2.35-4.08-4.08-.99-1.73-1.49-3.67-1.49-5.82s.5-4.09,1.49-5.82c.99-1.73,2.35-3.09,4.08-4.08,1.73-.99,3.67-1.49,5.82-1.49,1.12,0,2.2.14,3.24.41,1.04.27,1.98.66,2.8,1.17.3.19.44.45.44.79,0,.27-.09.51-.27.7-.18.19-.39.29-.62.29-.21,0-.4-.05-.57-.16-1.58-.86-3.26-1.3-5.03-1.3s-3.4.41-4.83,1.23c-1.42.82-2.54,1.96-3.34,3.4-.8,1.44-1.2,3.06-1.2,4.86s.4,3.41,1.2,4.86c.8,1.44,1.91,2.58,3.34,3.4,1.42.82,3.03,1.23,4.83,1.23.91,0,1.82-.13,2.74-.38s1.74-.6,2.45-1.04v-6.27h-5c-.27,0-.51-.09-.7-.27-.19-.18-.28-.41-.28-.68s.09-.5.28-.68c.19-.18.42-.27.7-.27h6.05c.27,0,.5.09.68.27Z"/>
        <path class="cls-2" d="M215.27,379.97c0,.19-.07.4-.22.63-.19.23-.43.35-.73.35-.17,0-.34-.05-.51-.16-1.69-1.12-3.53-1.68-5.54-1.68-1.71,0-3.26.4-4.64,1.2-1.38.8-2.47,1.93-3.26,3.37-.79,1.45-1.19,3.09-1.19,4.92s.4,3.54,1.2,4.99c.8,1.45,1.89,2.56,3.28,3.35,1.38.79,2.92,1.19,4.61,1.19,2,0,3.84-.55,5.51-1.65.17-.1.35-.16.54-.16.3,0,.54.13.73.38.15.17.22.37.22.6,0,.34-.15.59-.44.76-.82.55-1.84,1.01-3.04,1.38-1.2.37-2.37.55-3.51.55-2,0-3.86-.48-5.55-1.44-1.7-.96-3.05-2.3-4.05-4.04-1-1.73-1.5-3.7-1.5-5.92s.5-4.07,1.49-5.81c.99-1.74,2.33-3.1,4.02-4.08,1.69-.98,3.56-1.47,5.6-1.47,1.18,0,2.34.17,3.47.51,1.13.34,2.15.81,3.05,1.42.32.19.47.45.47.79Z"/>
        <path class="cls-2" d="M244.01,394.46c-.91,1.73-2.16,3.09-3.77,4.07-1.6.98-3.43,1.47-5.48,1.47s-3.87-.49-5.48-1.47c-1.6-.98-2.86-2.34-3.77-4.07-.91-1.73-1.36-3.68-1.36-5.86s.45-4.16,1.36-5.89c.91-1.73,2.16-3.08,3.77-4.05,1.6-.97,3.43-1.46,5.48-1.46s3.87.49,5.48,1.46c1.6.97,2.86,2.32,3.77,4.05.91,1.73,1.36,3.69,1.36,5.89s-.45,4.13-1.36,5.86ZM242.25,383.68c-.73-1.44-1.74-2.57-3.04-3.37-1.3-.8-2.78-1.2-4.45-1.2s-3.15.4-4.45,1.2c-1.3.8-2.31,1.93-3.04,3.37-.73,1.45-1.09,3.09-1.09,4.92s.36,3.48,1.09,4.92c.73,1.45,1.74,2.57,3.04,3.37,1.3.8,2.78,1.2,4.45,1.2s3.15-.4,4.45-1.2c1.3-.8,2.31-1.93,3.04-3.37.73-1.44,1.09-3.09,1.09-4.92s-.36-3.48-1.09-4.92Z"/>
        <path class="cls-2" d="M276.15,377.8c.18.18.27.41.27.68v20.26c0,.27-.09.5-.28.68-.19.18-.42.27-.7.27-.3,0-.54-.09-.73-.27-.19-.18-.28-.41-.28-.68v-17.41l-7.44,11.27c-.21.27-.45.4-.73.38h-.06c-.25,0-.49-.13-.7-.38l-7.44-11.33v17.47c0,.27-.09.5-.27.68-.18.18-.41.27-.68.27s-.5-.09-.66-.27c-.17-.18-.25-.41-.25-.68v-20.26c0-.25.09-.47.27-.66.18-.19.41-.28.68-.28.15,0,.31.04.47.11.17.07.3.17.38.3l8.29,12.44,8.36-12.44c.23-.32.52-.45.85-.41.25,0,.47.09.65.27Z"/>
        <path class="cls-2" d="M300.28,378.33c.93.54,1.65,1.29,2.17,2.25.52.96.78,2.04.78,3.24s-.26,2.3-.78,3.29c-.52.99-1.24,1.77-2.17,2.34-.93.57-1.97.85-3.13.85h-6.55v8.42c0,.27-.09.5-.27.68-.18.18-.41.27-.68.27s-.5-.09-.68-.27c-.18-.18-.27-.41-.27-.68v-20.26c0-.27.09-.5.27-.68.18-.18.41-.27.68-.27h7.5c1.16,0,2.2.27,3.13.81ZM300.12,387.15c.76-.89,1.14-1.99,1.14-3.32s-.38-2.37-1.14-3.2c-.76-.82-1.75-1.23-2.98-1.23h-6.55v9.08h6.55c1.22,0,2.22-.44,2.98-1.33Z"/>
        <path class="cls-2" d="M329.21,398.8c0,.27-.09.5-.28.66-.19.17-.41.25-.66.25-.21,0-.4-.06-.55-.17-.16-.12-.28-.27-.36-.46l-2.37-5.79h-10.29l-2.34,5.79c-.17.42-.45.63-.85.63-.3,0-.52-.07-.66-.22-.15-.15-.23-.35-.25-.6v-.1c0-.13.01-.22.03-.28l8.36-20.45c.17-.42.49-.63.95-.63.21,0,.4.06.55.17.16.12.28.27.36.46l8.32,20.35c.04.17.06.3.06.38ZM315.41,391.42h8.8l-4.43-10.82-4.37,10.82Z"/>
        <path class="cls-2" d="M356.29,377.78c.16.17.24.38.24.63v20.26c0,.32-.1.56-.28.74-.19.18-.42.27-.7.27-.15,0-.29-.03-.43-.1-.14-.06-.25-.14-.33-.22l-13.58-18.29v17.76c0,.23-.09.43-.27.6-.18.17-.39.25-.62.25-.25,0-.46-.08-.63-.25-.17-.17-.25-.37-.25-.6v-20.35c0-.3.09-.53.27-.7.18-.17.4-.25.65-.25.34,0,.59.12.76.35l13.64,18.39v-17.85c0-.25.08-.46.25-.63.17-.17.38-.25.63-.25.27,0,.49.08.65.25Z"/>
        <path class="cls-2" d="M382.76,378.95l-7.06,9.72v10.06c0,.27-.09.5-.28.68-.19.18-.42.27-.7.27s-.5-.09-.68-.27c-.18-.18-.27-.41-.27-.68v-10.03l-7.09-9.69c-.17-.19-.25-.41-.25-.66s.11-.47.32-.66c.21-.19.44-.29.7-.29.34,0,.6.15.79.44l6.55,8.93,6.39-8.93c.23-.29.51-.44.82-.44.25,0,.47.1.66.3.19.2.28.42.28.65,0,.15-.06.35-.19.6Z"/>
      </g>
      <g>
        <g class="cls-3">
          <path class="cls-1" d="M241.65,149.1c0-27.52-51.08-29.25-72.96-29.03-21.87.21-72.95,1.34-72.95,29.03s59.81,29.69,71.91,29.47c12.1-.21,74-1.18,74-29.47Z"/>
        </g>
        <g class="cls-3">
          <path class="cls-1" d="M120.58,204.44c-3.45,8.75-22.04,51.96-45.74,41.42-23.71-10.54-7.15-48.91-.76-64.67,6.39-15.76,22.45-49.23,44.66-39.91,24.49,10.28,5.29,54.41,1.84,63.16Z"/>
        </g>
        <g class="cls-3">
          <path class="cls-1" d="M264.45,181.27c4.17,9.07,23.61,55.01-1.86,65.43-25.47,10.42-42.7-30.43-50.08-46.89-7.37-16.46-21.22-53.33,2.22-63.5,25.85-11.2,45.55,35.89,49.71,44.95Z"/>
        </g>
        <g class="cls-3">
          <path class="cls-1" d="M274.61,142.56c8.76,3.02,52.06,19.44,42.72,43.22-9.35,23.78-47.81,9.14-63.58,3.53-15.78-5.61-49.4-19.97-41.19-42.22,9.06-24.53,53.3-7.55,62.05-4.53Z"/>
        </g>
        <g class="cls-3">
          <path class="cls-1" d="M238.88,28.89c6.19,4.86,36.26,30.27,19.64,49.64-16.62,19.36-43.3-3.25-54.39-12.16-11.09-8.92-33.84-30.11-18.73-48.36,16.65-20.12,47.29,6.02,53.48,10.89Z"/>
        </g>
        <g class="cls-3">
          <path class="cls-1" d="M248.75,28.56c4.34,6.24,24.92,38.2,4.1,51.38-20.82,13.18-39.06-15.24-46.78-26.61-7.72-11.37-22.73-37.37-3.63-49.95,21.06-13.87,41.96,18.93,46.3,25.17Z"/>
        </g>
        <g class="cls-3">
          <path class="cls-1" d="M293.79,58.7c7.46.46,41.37,5.41,40.35,28.52-.99,22.59-33.81,20.45-47.28,19.47-13.47-.98-42.65-5.27-40.69-27.66,2.16-24.68,40.16-20.79,47.62-20.33Z"/>
        </g>
        <g class="cls-3">
          <path class="cls-1" d="M205.73,112.33c2.58-7.45,16.91-44.15,42.84-33.88,25.93,10.28,13.15,42.87,8.32,56.28-4.83,13.4-17.67,41.76-41.89,32.61-26.71-10.09-11.85-47.56-9.27-55.01Z"/>
        </g>
        <g class="cls-3">
          <path class="cls-1" d="M99.01,202.71c-6.94,5.96-42.54,34.71-58.15,14.88-15.61-19.83,16.04-45.33,28.69-55.99,12.65-10.66,41.66-32.17,56.54-14.07,16.4,19.96-20.14,49.21-27.08,55.18Z"/>
        </g>
        <g class="cls-3">
          <path class="cls-1" d="M340.26,81.89c3.57.14,4.7,3.15,4.55,6.93s-1.53,6.91-5.1,6.77-7.77-3.68-7.62-7.46c.15-3.78,4.6-6.38,8.17-6.24Z"/>
        </g>
        <g class="cls-3">
          <path class="cls-1" d="M31.2,60.45c3.29-2.8,6.77-.7,8.5,1.03l17.6,18.46.43-.27c18.7-12.16,44.84,15.51,50.52,20.93,6.04,5.77,35.23,35.62,16.63,53.49-18.6,17.87-44.5-8.69-55.31-19.23-10.11-9.86-29.96-32.04-18.59-48.7-.58-.66-8.22-9.24-14.97-14.52-5.48-4.29-6.54-9.45-4.81-11.18Z"/>
        </g>
      </g>
    </g>
  </g>
</svg>