<?xml version="1.0" encoding="UTF-8"?>
<svg id="Layer_2" data-name="Layer 2" xmlns="http://www.w3.org/2000/svg" viewBox="0 0 346.64 80">
  <defs>
    <style>
      .cls-1 {
        fill: #d95436;
      }

      .cls-1, .cls-2 {
        stroke-width: 0px;
      }

      .cls-2 {
        fill: #000;
      }
    </style>
  </defs>
  <g id="Design">
    <g>
      <path class="cls-1" d="M99.79,26.37c-.69-.03-1.47.26-2,.76-.61-6.62-10.67-8.08-12.97-8.23-1.4-.09-6.11-.54-9.95.65-.12-.56-.3-1.11-.53-1.65-.79-3.82-3.23-7.58-4.02-8.71-1.4-2.01-8.13-12.57-14.91-8.11-1.11.73-1.86,1.61-2.33,2.57-1.15.34-2.22,1.01-3.16,2.14-4.86,5.88,2.46,12.7,6.03,15.58,1.59,1.28,4.17,3.42,7.01,4.86-3.78,2.76-5.95,8.37-6.49,9.94-.2.57-.62,1.71-1.04,3.14-4.04-.6-8.17-.67-10.89-.65-3.35.03-8.83.13-13.65,1.19-1.84-3.49-4.81-6.5-5.82-7.46-1.83-1.75-10.25-10.66-16.27-6.74l-.14.09-5.67-5.95c-.56-.56-1.68-1.23-2.74-.33-.56.56-.22,2.22,1.55,3.6,2.18,1.7,4.64,4.46,4.82,4.68-3.66,5.37,2.73,12.51,5.99,15.69,1.25,1.22,3.11,3.09,5.27,4.73-2.09,1.29-3.96,2.77-5.28,3.88-4.07,3.43-14.27,11.65-9.24,18.03,1.76,2.23,4.31,2.55,6.97,1.94-.02,3.11.98,5.83,3.97,7.17,7.64,3.39,13.62-10.52,14.73-13.34.53-1.35,2.22-5.3,2.98-9.42,5.06,1.05,10.34,1.13,12.18,1.09,1.75-.03,6.71-.11,11.66-1.01.73,3.01,1.9,5.88,2.79,7.85,2.38,5.3,7.92,18.46,16.13,15.1,6.06-2.48,4.23-11.18,2.32-16.75,5.74,1.69,13.09,2.79,15.31-2.87,3.01-7.66-10.94-12.95-13.76-13.92-.96-.33-3.25-1.18-5.96-1.85.09-.23.17-.46.25-.67.85-2.36,2.46-6.56,2.39-10.43,2.55.92,5.38,1.26,7.26,1.4,4.01.29,13.34.9,14.98-4.76.48.67,1.3,1.15,2.04,1.18,1.15.05,1.59-.96,1.64-2.18s-.32-2.19-1.47-2.23Z"/>
      <g>
        <g>
          <path class="cls-2" d="M149.91,18.45h-16.4v7.52h14.36v5.68h-14.36v13.71h-6.79V12.7h23.19v5.75Z"/>
          <path class="cls-2" d="M195.88,31.07h-15.89v8.41h18.11v5.88h-24.78V12.66h23.98v5.79h-17.31v6.95h15.89v5.68Z"/>
          <path class="cls-2" d="M245.81,12.66v5.79h-9.78v26.91h-6.88v-26.91h-9.83v-5.79h26.49Z"/>
          <path class="cls-2" d="M291.51,42.92c-2.44,2.23-5.56,3.35-9.36,3.35-4.7,0-8.4-1.51-11.09-4.53-2.69-3.03-4.04-7.19-4.04-12.47,0-5.71,1.53-10.11,4.59-13.2,2.66-2.69,6.05-4.04,10.16-4.04,5.5,0,9.53,1.8,12.07,5.41,1.41,2.03,2.16,4.06,2.26,6.1h-6.83c-.44-1.57-1.01-2.75-1.71-3.55-1.24-1.42-3.08-2.13-5.53-2.13s-4.44,1-5.88,3.01c-1.43,2-2.15,4.84-2.15,8.51s.76,6.42,2.27,8.24c1.52,1.83,3.44,2.74,5.78,2.74s4.22-.78,5.48-2.35c.69-.84,1.27-2.11,1.73-3.79h6.77c-.59,3.56-2.1,6.46-4.53,8.7Z"/>
          <path class="cls-2" d="M339.39,45.36v-14.6h-12.78v14.6h-6.77V12.66h6.77v12.47h12.78v-12.47h6.79v32.7h-6.79Z"/>
        </g>
        <g>
          <path class="cls-2" d="M135.82,74.15c.46.55.69,1.25.69,2.13,0,1.19-.37,2.08-1.1,2.66s-1.65.88-2.74.88h-4.89c-.16,0-.29-.05-.39-.15s-.15-.23-.15-.39v-11.63c0-.16.05-.29.15-.39s.23-.15.39-.15h4.82c1.02,0,1.81.28,2.39.84.58.56.86,1.32.86,2.29,0,.64-.16,1.22-.47,1.73-.32.51-.76.88-1.35,1.11.73.18,1.32.55,1.78,1.09ZM134.1,68.74c-.39-.38-.94-.57-1.65-.57h-4.05v4.54h4.05c.65-.01,1.19-.22,1.61-.64.42-.41.63-1,.63-1.76,0-.67-.2-1.19-.59-1.57ZM134.59,78.13c.5-.41.75-1.03.75-1.85s-.26-1.47-.77-1.87c-.52-.4-1.18-.6-1.99-.6h-4.18v4.94h4.22c.81,0,1.47-.21,1.97-.62Z"/>
          <path class="cls-2" d="M152.23,79.31c0,.16-.05.29-.16.38-.11.1-.24.15-.38.15-.12,0-.23-.03-.32-.1-.09-.07-.16-.15-.21-.26l-1.36-3.33h-5.91l-1.35,3.33c-.1.24-.26.36-.49.36-.17,0-.3-.04-.38-.13-.08-.08-.13-.2-.15-.35v-.05c0-.07,0-.13.02-.16l4.8-11.74c.1-.24.28-.36.55-.36.12,0,.23.03.32.1.09.07.16.15.21.26l4.78,11.69c.02.1.04.17.04.22ZM144.31,75.07h5.05l-2.54-6.22-2.51,6.22Z"/>
          <path class="cls-2" d="M167.78,67.24c.09.1.14.22.14.36v11.63c0,.18-.05.32-.16.43-.11.1-.24.15-.4.15-.08,0-.17-.02-.25-.05-.08-.04-.14-.08-.19-.13l-7.8-10.51v10.2c0,.13-.05.25-.15.35-.1.1-.22.14-.35.14-.15,0-.27-.05-.36-.14-.1-.1-.15-.21-.15-.35v-11.69c0-.17.05-.3.15-.4.1-.1.23-.15.37-.15.19,0,.34.07.44.2l7.83,10.56v-10.25c0-.15.05-.27.15-.36.1-.1.22-.15.36-.15.16,0,.28.05.37.15Z"/>
          <path class="cls-2" d="M184.68,79.31c0,.18-.06.32-.19.43-.13.1-.27.15-.43.15s-.29-.07-.4-.2l-5.07-6.38-2.47,2.33v3.62c-.01.17-.07.31-.18.41-.11.1-.24.15-.4.15-.17,0-.31-.05-.41-.15s-.15-.24-.15-.41v-11.6c0-.17.05-.31.16-.41.11-.1.25-.15.42-.15s.31.05.41.15.15.24.15.41v6.6l7.34-6.94c.11-.12.24-.18.4-.18.15,0,.27.06.37.16.1.11.15.23.15.36,0,.14-.05.27-.16.38l-4.76,4.45,5.09,6.43c.08.12.13.25.13.38Z"/>
          <path class="cls-2" d="M191.84,79.65c-.11.11-.24.16-.4.16-.17,0-.31-.05-.41-.15s-.15-.24-.15-.41v-11.6c0-.17.05-.31.16-.41.11-.1.25-.15.42-.15.16,0,.29.06.4.16.11.11.16.24.16.4v11.6c-.01.16-.07.29-.18.4Z"/>
          <path class="cls-2" d="M208.73,67.24c.09.1.14.22.14.36v11.63c0,.18-.05.32-.16.43-.11.1-.24.15-.4.15-.08,0-.17-.02-.25-.05-.08-.04-.14-.08-.19-.13l-7.8-10.51v10.2c0,.13-.05.25-.15.35-.1.1-.22.14-.35.14-.15,0-.27-.05-.36-.14-.1-.1-.15-.21-.15-.35v-11.69c0-.17.05-.3.15-.4.1-.1.23-.15.37-.15.19,0,.34.07.44.2l7.83,10.56v-10.25c0-.15.05-.27.15-.36.1-.1.22-.15.36-.15.16,0,.28.05.37.15Z"/>
          <path class="cls-2" d="M225.6,73.56c.1.1.15.23.15.39v4.38c0,.21-.09.37-.27.49-.55.38-1.15.67-1.82.87-.67.21-1.35.31-2.04.31-1.24,0-2.35-.28-3.34-.86-.99-.57-1.78-1.35-2.34-2.34-.57-.99-.85-2.11-.85-3.34s.28-2.35.85-3.34c.57-.99,1.35-1.77,2.34-2.34.99-.57,2.11-.85,3.34-.85.64,0,1.26.08,1.86.24.6.16,1.14.38,1.61.67.17.11.25.26.25.45,0,.16-.05.29-.15.4s-.22.16-.35.16c-.12,0-.23-.03-.33-.09-.91-.5-1.87-.75-2.89-.75s-1.95.24-2.77.71-1.46,1.12-1.92,1.95c-.46.83-.69,1.76-.69,2.79s.23,1.96.69,2.79,1.1,1.48,1.92,1.95c.82.47,1.74.71,2.77.71.52,0,1.05-.07,1.57-.22.53-.14,1-.34,1.41-.6v-3.6h-2.87c-.16,0-.29-.05-.4-.15-.11-.1-.16-.23-.16-.39s.05-.29.16-.39c.11-.1.24-.15.4-.15h3.47c.16,0,.29.05.39.15Z"/>
          <path class="cls-2" d="M250.35,68.49c0,.11-.04.23-.13.36-.11.13-.25.2-.42.2-.1,0-.19-.03-.29-.09-.97-.64-2.03-.96-3.18-.96-.98,0-1.87.23-2.66.69s-1.42,1.11-1.87,1.94c-.45.83-.68,1.77-.68,2.83s.23,2.03.69,2.86c.46.83,1.09,1.47,1.88,1.93.79.46,1.67.68,2.64.68,1.15,0,2.21-.32,3.16-.95.1-.06.2-.09.31-.09.17,0,.31.07.42.22.08.1.13.21.13.35,0,.19-.08.34-.25.44-.47.32-1.05.58-1.74.79s-1.36.32-2.02.32c-1.15,0-2.21-.28-3.19-.83-.98-.55-1.75-1.32-2.33-2.32s-.86-2.13-.86-3.4.28-2.34.85-3.33c.57-1,1.34-1.78,2.31-2.34.97-.56,2.04-.85,3.22-.85.68,0,1.34.1,1.99.29.65.19,1.23.47,1.75.82.18.11.27.26.27.45Z"/>
          <path class="cls-2" d="M266.85,76.82c-.52.99-1.24,1.77-2.16,2.34s-1.97.85-3.14.85-2.22-.28-3.14-.85-1.64-1.34-2.16-2.34-.78-2.11-.78-3.36.26-2.39.78-3.38,1.24-1.77,2.16-2.33,1.97-.84,3.14-.84,2.22.28,3.14.84,1.64,1.33,2.16,2.33c.52.99.78,2.12.78,3.38s-.26,2.37-.78,3.36ZM265.84,70.63c-.42-.83-1-1.47-1.74-1.94-.75-.46-1.6-.69-2.55-.69s-1.81.23-2.55.69-1.33,1.11-1.74,1.94c-.42.83-.63,1.77-.63,2.83s.21,2,.63,2.83c.42.83,1,1.48,1.74,1.94s1.6.69,2.55.69,1.81-.23,2.55-.69c.74-.46,1.33-1.11,1.74-1.94.42-.83.63-1.77.63-2.83s-.21-2-.63-2.83Z"/>
          <path class="cls-2" d="M285.31,67.25c.1.1.15.23.15.39v11.63c0,.16-.05.29-.16.39-.11.1-.24.15-.4.15-.17,0-.31-.05-.42-.15-.11-.1-.16-.23-.16-.39v-10l-4.27,6.47c-.12.16-.26.23-.42.22h-.04c-.15,0-.28-.07-.4-.22l-4.27-6.51v10.03c0,.16-.05.29-.15.39s-.23.15-.39.15-.28-.05-.38-.15c-.1-.1-.15-.23-.15-.39v-11.63c0-.14.05-.27.15-.38.1-.11.23-.16.39-.16.08,0,.18.02.27.06.1.04.17.1.22.17l4.76,7.14,4.8-7.14c.13-.18.3-.26.49-.24.15,0,.27.05.37.15Z"/>
          <path class="cls-2" d="M299.17,67.56c.53.31.95.74,1.25,1.29.3.55.45,1.17.45,1.86s-.15,1.32-.45,1.89c-.3.57-.71,1.02-1.25,1.34s-1.13.49-1.8.49h-3.76v4.83c0,.16-.05.29-.15.39s-.23.15-.39.15-.29-.05-.39-.15-.15-.23-.15-.39v-11.63c0-.16.05-.29.15-.39s.23-.15.39-.15h4.31c.67,0,1.27.15,1.8.46ZM299.08,72.62c.44-.51.65-1.14.65-1.91s-.22-1.36-.65-1.84c-.44-.47-1.01-.71-1.71-.71h-3.76v5.22h3.76c.7,0,1.27-.25,1.71-.76Z"/>
          <path class="cls-2" d="M315.78,79.31c0,.16-.05.29-.16.38-.11.1-.24.15-.38.15-.12,0-.23-.03-.32-.1-.09-.07-.16-.15-.21-.26l-1.36-3.33h-5.91l-1.35,3.33c-.1.24-.26.36-.49.36-.17,0-.3-.04-.38-.13-.08-.08-.13-.2-.15-.35v-.05c0-.07,0-.13.02-.16l4.8-11.74c.1-.24.28-.36.55-.36.12,0,.23.03.32.1.09.07.16.15.21.26l4.78,11.69c.02.1.04.17.04.22ZM307.85,75.07h5.05l-2.54-6.22-2.51,6.22Z"/>
          <path class="cls-2" d="M331.33,67.24c.09.1.14.22.14.36v11.63c0,.18-.05.32-.16.43-.11.1-.24.15-.4.15-.08,0-.17-.02-.25-.05-.08-.04-.14-.08-.19-.13l-7.8-10.51v10.2c0,.13-.05.25-.15.35-.1.1-.22.14-.35.14-.15,0-.27-.05-.36-.14-.1-.1-.15-.21-.15-.35v-11.69c0-.17.05-.3.15-.4.1-.1.23-.15.37-.15.19,0,.34.07.44.2l7.83,10.56v-10.25c0-.15.05-.27.15-.36.1-.1.22-.15.36-.15.16,0,.28.05.37.15Z"/>
          <path class="cls-2" d="M346.53,67.91l-4.05,5.58v5.78c0,.16-.05.29-.16.39-.11.1-.24.15-.4.15s-.29-.05-.39-.15-.15-.23-.15-.39v-5.76l-4.07-5.56c-.1-.11-.15-.24-.15-.38s.06-.27.18-.38c.12-.11.25-.16.4-.16.19,0,.35.08.45.25l3.76,5.13,3.67-5.13c.13-.17.29-.25.47-.25.15,0,.27.06.38.17.11.12.16.24.16.37,0,.08-.04.2-.11.35Z"/>
        </g>
      </g>
    </g>
  </g>
</svg>