<?xml version="1.0" encoding="UTF-8"?>
<svg id="Layer_2" data-name="Layer 2" xmlns="http://www.w3.org/2000/svg" viewBox="0 0 994.51 229.52">
  <defs>
    <style>
      .cls-1 {
        fill: #d95436;
      }

      .cls-1, .cls-2 {
        stroke-width: 0px;
      }

      .cls-2 {
        fill: #000;
      }
    </style>
  </defs>
  <g id="Design">
    <g>
      <path class="cls-1" d="M286.29,75.67c-1.97-.08-4.21.76-5.74,2.18-1.75-18.99-30.62-23.2-37.2-23.6-4-.25-17.53-1.56-28.56,1.86-.35-1.59-.86-3.18-1.52-4.73-2.27-10.97-9.28-21.73-11.54-24.98-4.01-5.77-23.32-36.08-42.79-23.26-3.19,2.1-5.33,4.61-6.69,7.36-3.29.97-6.38,2.89-9.07,6.14-13.96,16.86,7.06,36.45,17.31,44.69,4.55,3.66,11.95,9.81,20.11,13.96-10.84,7.91-17.07,24.02-18.63,28.53-.57,1.65-1.79,4.9-2.98,9.01-11.59-1.73-23.43-1.93-31.25-1.85-9.61.09-25.33.38-39.17,3.41-5.27-10-13.81-18.66-16.69-21.4-5.24-5.01-29.4-30.58-46.68-19.34l-.4.25-16.26-17.06c-1.6-1.6-4.81-3.54-7.86-.95-1.6,1.6-.62,6.37,4.44,10.33,6.24,4.88,13.3,12.81,13.84,13.42-10.51,15.4,7.84,35.89,17.18,45.01,3.57,3.49,8.94,8.86,15.13,13.58-6,3.71-11.37,7.95-15.16,11.13-11.69,9.85-40.94,33.41-26.51,51.73,5.05,6.41,12.36,7.32,20,5.56-.05,8.94,2.8,16.73,11.4,20.56,21.91,9.74,39.08-30.18,42.27-38.27,1.53-3.87,6.37-15.21,8.54-27.04,14.5,3.02,29.66,3.23,34.95,3.14,5.01-.09,19.26-.32,33.46-2.9,2.11,8.62,5.46,16.88,7.99,22.53,6.81,15.21,22.74,52.95,46.27,43.33,17.38-7.1,12.13-32.09,6.65-48.06,16.46,4.85,37.55,8.01,43.94-8.24,8.64-21.97-31.38-37.15-39.47-39.93-2.76-.95-9.31-3.39-17.09-5.31.26-.67.5-1.32.72-1.93,2.44-6.77,7.06-18.83,6.85-29.93,7.32,2.65,15.44,3.62,20.84,4.02,11.5.84,38.27,2.58,42.98-13.65,1.38,1.91,3.73,3.31,5.86,3.39,3.3.13,4.57-2.76,4.72-6.25.14-3.5-.91-6.28-4.21-6.41Z"/>
      <g>
        <g>
          <path class="cls-2" d="M430.1,52.93h-47.04v21.58h41.19v16.29h-41.19v39.34h-19.48V36.44h66.52v16.49Z"/>
          <path class="cls-2" d="M561.97,89.15h-45.58v24.12h51.94v16.87h-71.1V36.32h68.81v16.61h-49.65v19.93h45.58v16.29Z"/>
          <path class="cls-2" d="M705.24,36.32v16.61h-28.07v77.21h-19.73V52.93h-28.2v-16.61h76.01Z"/>
          <path class="cls-2" d="M836.35,123.14c-7,6.41-15.96,9.61-26.86,9.61-13.49,0-24.1-4.33-31.83-12.99-7.72-8.7-11.59-20.63-11.59-35.78,0-16.38,4.39-29.01,13.18-37.88,7.64-7.72,17.35-11.59,29.15-11.59,15.79,0,27.33,5.18,34.63,15.53,4.03,5.82,6.2,11.65,6.49,17.51h-19.61c-1.27-4.5-2.91-7.9-4.9-10.18-3.56-4.08-8.85-6.11-15.85-6.11s-12.75,2.87-16.87,8.63c-4.12,5.75-6.17,13.89-6.17,24.41s2.17,18.41,6.52,23.65c4.35,5.24,9.88,7.86,16.58,7.86s12.12-2.25,15.72-6.75c1.99-2.42,3.65-6.05,4.96-10.89h19.42c-1.7,10.23-6.03,18.55-12.99,24.95Z"/>
          <path class="cls-2" d="M973.7,130.14v-41.88h-36.67v41.88h-19.42V36.32h19.42v35.77h36.67v-35.77h19.48v93.83h-19.48Z"/>
        </g>
        <g>
          <path class="cls-2" d="M389.66,212.73c1.32,1.56,1.98,3.6,1.98,6.1,0,3.41-1.05,5.95-3.16,7.64-2.1,1.69-4.72,2.53-7.85,2.53h-14.03c-.45,0-.83-.15-1.12-.44s-.44-.67-.44-1.12v-33.37c0-.45.15-.82.44-1.12s.67-.44,1.12-.44h13.82c2.92,0,5.21.8,6.86,2.4,1.65,1.6,2.48,3.79,2.48,6.57,0,1.84-.45,3.49-1.35,4.95-.91,1.46-2.19,2.52-3.86,3.18,2.09.52,3.79,1.56,5.11,3.13ZM384.74,197.21c-1.13-1.1-2.7-1.64-4.72-1.64h-11.63v13.04h11.63c1.88-.03,3.42-.64,4.61-1.83,1.2-1.18,1.8-2.87,1.8-5.06,0-1.91-.57-3.42-1.7-4.51ZM386.14,224.15c1.44-1.18,2.16-2.96,2.16-5.32s-.74-4.22-2.22-5.37c-1.48-1.15-3.38-1.72-5.71-1.72h-11.99v14.18h12.1c2.33,0,4.21-.59,5.66-1.77Z"/>
          <path class="cls-2" d="M436.75,227.54c0,.45-.16.82-.47,1.09-.31.28-.68.42-1.09.42-.35,0-.65-.1-.91-.29-.26-.19-.46-.44-.6-.76l-3.91-9.54h-16.95l-3.86,9.54c-.28.7-.75,1.04-1.41,1.04-.49,0-.85-.12-1.09-.37-.24-.24-.38-.57-.42-.99v-.16c0-.21.02-.37.05-.47l13.77-33.68c.28-.69.8-1.04,1.56-1.04.35,0,.65.09.91.29.26.19.46.44.6.75l13.71,33.53c.07.28.11.49.11.63ZM414.02,215.39h14.5l-7.3-17.83-7.2,17.83Z"/>
          <path class="cls-2" d="M481.36,192.91c.26.28.39.62.39,1.04v33.37c0,.52-.16.93-.47,1.23-.31.3-.7.44-1.15.44-.24,0-.48-.05-.7-.16-.23-.1-.41-.23-.55-.37l-22.37-30.14v29.26c0,.38-.15.71-.44.99-.3.28-.63.41-1.02.41-.42,0-.77-.14-1.04-.41-.28-.28-.42-.61-.42-.99v-33.53c0-.49.15-.87.44-1.14.3-.28.65-.42,1.07-.42.56,0,.97.19,1.25.58l22.47,30.3v-29.41c0-.42.14-.76.42-1.04.28-.28.63-.42,1.04-.42.45,0,.81.14,1.07.42Z"/>
          <path class="cls-2" d="M529.83,227.54c0,.52-.18.93-.55,1.23-.36.29-.77.44-1.23.44s-.83-.19-1.15-.58l-14.55-18.3-7.09,6.67v10.38c-.04.49-.21.88-.52,1.17-.31.3-.7.44-1.15.44-.49,0-.88-.15-1.17-.44s-.44-.68-.44-1.17v-33.27c0-.49.16-.88.47-1.17.31-.3.71-.44,1.2-.44s.88.15,1.17.44.44.69.44,1.17v18.93l21.07-19.92c.31-.35.69-.52,1.15-.52.42,0,.77.16,1.07.47.3.31.44.66.44,1.04,0,.41-.16.78-.47,1.1l-13.66,12.77,14.6,18.46c.24.35.37.72.37,1.1Z"/>
          <path class="cls-2" d="M550.38,228.53c-.31.31-.7.47-1.15.47-.49,0-.88-.15-1.17-.44s-.44-.68-.44-1.17v-33.27c0-.49.16-.88.47-1.17.31-.3.71-.44,1.2-.44.45,0,.83.16,1.15.47.31.32.47.7.47,1.15v33.27c-.04.45-.21.83-.52,1.14Z"/>
          <path class="cls-2" d="M598.85,192.91c.26.28.39.62.39,1.04v33.37c0,.52-.16.93-.47,1.23-.31.3-.7.44-1.15.44-.24,0-.48-.05-.7-.16-.23-.1-.41-.23-.55-.37l-22.37-30.14v29.26c0,.38-.15.71-.44.99-.3.28-.63.41-1.02.41-.42,0-.77-.14-1.04-.41-.28-.28-.42-.61-.42-.99v-33.53c0-.49.15-.87.44-1.14.3-.28.65-.42,1.07-.42.56,0,.97.19,1.25.58l22.47,30.3v-29.41c0-.42.14-.76.42-1.04.28-.28.63-.42,1.04-.42.45,0,.81.14,1.07.42Z"/>
          <path class="cls-2" d="M647.24,211.03c.3.3.44.67.44,1.12v12.57c0,.59-.26,1.06-.78,1.41-1.56,1.08-3.3,1.91-5.21,2.5-1.91.59-3.86.89-5.84.89-3.55,0-6.74-.82-9.59-2.45-2.85-1.63-5.09-3.87-6.73-6.73-1.63-2.85-2.45-6.05-2.45-9.59s.82-6.74,2.45-9.59c1.63-2.85,3.88-5.09,6.73-6.73,2.85-1.63,6.05-2.45,9.59-2.45,1.84,0,3.63.23,5.35.68,1.72.45,3.26,1.1,4.62,1.93.49.31.73.75.73,1.3,0,.45-.15.83-.44,1.15s-.63.47-1.02.47c-.35,0-.66-.09-.94-.26-2.61-1.42-5.37-2.14-8.29-2.14s-5.61.68-7.95,2.03c-2.35,1.35-4.18,3.22-5.5,5.61-1.32,2.38-1.98,5.05-1.98,8s.66,5.63,1.98,8.01c1.32,2.38,3.16,4.25,5.5,5.61,2.35,1.35,5,2.03,7.95,2.03,1.49,0,3-.21,4.51-.63,1.51-.41,2.86-.99,4.04-1.72v-10.33h-8.24c-.45,0-.83-.15-1.15-.44-.31-.3-.47-.67-.47-1.12s.16-.82.47-1.12c.31-.29.7-.44,1.15-.44h9.96c.45,0,.82.15,1.12.44Z"/>
          <path class="cls-2" d="M718.24,196.51c0,.31-.12.66-.37,1.04-.31.38-.71.57-1.2.57-.28,0-.56-.09-.83-.26-2.78-1.84-5.82-2.76-9.13-2.76-2.82,0-5.36.66-7.64,1.98-2.28,1.32-4.07,3.17-5.37,5.55-1.3,2.38-1.96,5.09-1.96,8.11s.66,5.83,1.98,8.21c1.32,2.38,3.12,4.22,5.4,5.53,2.28,1.31,4.8,1.96,7.59,1.96,3.3,0,6.33-.9,9.07-2.71.28-.17.57-.26.89-.26.49,0,.89.21,1.2.63.24.28.37.61.37.99,0,.55-.24.97-.73,1.25-1.35.9-3.02,1.66-5.01,2.27s-3.91.91-5.79.91c-3.3,0-6.35-.79-9.15-2.37-2.8-1.58-5.02-3.8-6.68-6.65-1.65-2.85-2.48-6.1-2.48-9.75s.82-6.7,2.45-9.57c1.63-2.87,3.84-5.11,6.62-6.73,2.78-1.62,5.86-2.43,9.23-2.43,1.95,0,3.85.28,5.71.83,1.86.56,3.54,1.34,5.03,2.35.52.31.78.75.78,1.3Z"/>
          <path class="cls-2" d="M765.59,220.39c-1.5,2.85-3.56,5.08-6.21,6.7-2.64,1.62-5.65,2.43-9.02,2.43s-6.38-.81-9.02-2.43-4.71-3.85-6.21-6.7-2.24-6.07-2.24-9.65.75-6.85,2.24-9.7,3.56-5.08,6.21-6.68c2.64-1.6,5.65-2.4,9.02-2.4s6.38.8,9.02,2.4,4.71,3.83,6.21,6.68c1.49,2.85,2.24,6.08,2.24,9.7s-.75,6.8-2.24,9.65ZM762.69,202.64c-1.2-2.38-2.87-4.23-5.01-5.55-2.14-1.32-4.58-1.98-7.33-1.98s-5.19.66-7.33,1.98c-2.14,1.32-3.81,3.17-5.01,5.55-1.2,2.38-1.8,5.09-1.8,8.11s.6,5.73,1.8,8.11c1.2,2.38,2.87,4.23,5.01,5.56,2.14,1.32,4.58,1.98,7.33,1.98s5.19-.66,7.33-1.98c2.14-1.32,3.81-3.17,5.01-5.56,1.2-2.38,1.8-5.08,1.8-8.11s-.6-5.73-1.8-8.11Z"/>
          <path class="cls-2" d="M818.54,192.94c.29.3.44.67.44,1.12v33.37c0,.45-.16.83-.47,1.12-.31.3-.7.44-1.15.44-.49,0-.89-.15-1.2-.44-.31-.3-.47-.67-.47-1.12v-28.68l-12.25,18.56c-.35.45-.75.66-1.2.62h-.1c-.42,0-.8-.21-1.15-.62l-12.25-18.67v28.78c0,.45-.15.83-.44,1.12s-.67.44-1.12.44-.82-.15-1.09-.44c-.28-.3-.42-.67-.42-1.12v-33.37c0-.41.15-.78.44-1.1.3-.31.67-.47,1.12-.47.24,0,.5.06.78.18.28.12.49.29.63.5l13.66,20.49,13.77-20.49c.38-.52.85-.75,1.41-.68.42,0,.77.15,1.07.44Z"/>
          <path class="cls-2" d="M858.31,193.83c1.53.88,2.72,2.12,3.57,3.7.85,1.58,1.28,3.36,1.28,5.35s-.43,3.79-1.28,5.42c-.85,1.63-2.04,2.92-3.57,3.86-1.53.94-3.25,1.41-5.16,1.41h-10.8v13.87c0,.45-.15.83-.44,1.12s-.67.44-1.12.44-.83-.15-1.12-.44-.44-.67-.44-1.12v-33.37c0-.45.15-.82.44-1.12s.67-.44,1.12-.44h12.36c1.91,0,3.63.44,5.16,1.33ZM858.05,208.35c1.25-1.46,1.88-3.28,1.88-5.47s-.63-3.91-1.88-5.27c-1.25-1.36-2.89-2.04-4.9-2.04h-10.8v14.97h10.8c2.02,0,3.65-.73,4.9-2.19Z"/>
          <path class="cls-2" d="M905.97,227.54c0,.45-.16.82-.47,1.09-.31.28-.68.42-1.09.42-.35,0-.65-.1-.91-.29-.26-.19-.46-.44-.6-.76l-3.91-9.54h-16.95l-3.86,9.54c-.28.7-.75,1.04-1.41,1.04-.49,0-.85-.12-1.09-.37-.24-.24-.38-.57-.42-.99v-.16c0-.21.02-.37.05-.47l13.77-33.68c.28-.69.8-1.04,1.56-1.04.35,0,.65.09.91.29.26.19.46.44.6.75l13.71,33.53c.07.28.11.49.11.63ZM883.23,215.39h14.5l-7.3-17.83-7.2,17.83Z"/>
          <path class="cls-2" d="M950.58,192.91c.26.28.39.62.39,1.04v33.37c0,.52-.16.93-.47,1.23-.31.3-.7.44-1.15.44-.24,0-.48-.05-.7-.16-.23-.1-.41-.23-.55-.37l-22.37-30.14v29.26c0,.38-.15.71-.44.99-.3.28-.63.41-1.02.41-.42,0-.77-.14-1.04-.41-.28-.28-.42-.61-.42-.99v-33.53c0-.49.15-.87.44-1.14.3-.28.65-.42,1.07-.42.56,0,.97.19,1.25.58l22.47,30.3v-29.41c0-.42.14-.76.42-1.04.28-.28.63-.42,1.04-.42.45,0,.81.14,1.07.42Z"/>
          <path class="cls-2" d="M994.2,194.84l-11.63,16v16.58c0,.45-.16.83-.47,1.12-.31.3-.7.44-1.15.44s-.83-.15-1.12-.44-.44-.67-.44-1.12v-16.53l-11.68-15.96c-.28-.31-.42-.68-.42-1.1s.17-.78.52-1.1c.35-.31.73-.47,1.15-.47.56,0,.99.24,1.3.73l10.79,14.71,10.54-14.71c.38-.49.83-.73,1.35-.73.42,0,.78.16,1.1.49.31.33.47.69.47,1.07,0,.24-.1.57-.31.99Z"/>
        </g>
      </g>
    </g>
  </g>
</svg>