<?xml version="1.0" encoding="UTF-8"?>
<svg id="Layer_2" data-name="Layer 2" xmlns="http://www.w3.org/2000/svg" viewBox="0 0 48.36 20.97">
  <defs>
    <style>
      .cls-1 {
        fill: #1a1e43;
        stroke-width: 0px;
      }
    </style>
  </defs>
  <g id="Design">
    <path class="cls-1" d="M24.18,20.97c-.32,0-.65-.07-.95-.21-.29-.13-.54-.25-22.32-16.65C-.1,3.35-.3,1.92.46.91S2.65-.3,3.66.46c6.97,5.25,17,12.79,20.52,15.4,3.52-2.61,13.55-10.15,20.52-15.4,1.01-.76,2.44-.56,3.2.45.76,1.01.56,2.44-.45,3.2-21.78,16.41-22.03,16.52-22.32,16.65-.3.14-.63.21-.95.21Z"/>
  </g>
</svg>