<?xml version="1.0"?>
<svg width="48.36" height="20.97" xmlns="http://www.w3.org/2000/svg" xmlns:svg="http://www.w3.org/2000/svg" data-name="Layer 2">
 <defs>
  <style>.cls-1 {
        fill: #1a1e43;
        stroke-width: 0px;
      }</style>
 </defs>
 <g class="layer">
  <title>Layer 1</title>
  <g id="Design">
   <path class="cls-1" d="m25.18,20.97c-0.32,0 -0.65,-0.07 -0.95,-0.21c-0.29,-0.13 -0.54,-0.25 -22.32,-16.65c-1.01,-0.76 -1.21,-2.19 -0.45,-3.2s2.19,-1.21 3.2,-0.45c6.97,5.25 17,12.79 20.52,15.4c3.52,-2.61 13.55,-10.15 20.52,-15.4c1.01,-0.76 2.44,-0.56 3.2,0.45c0.76,1.01 0.56,2.44 -0.45,3.2c-21.78,16.41 -22.03,16.52 -22.32,16.65c-0.3,0.14 -0.63,0.21 -0.95,0.21z" id="svg_1"/>
  </g>
 </g>
</svg>