<?xml version="1.0" encoding="UTF-8"?>
<svg id="Layer_2" data-name="Layer 2" xmlns="http://www.w3.org/2000/svg" viewBox="0 0 105.99 129.91">
  <defs>
    <style>
      .cls-1 {
        fill: #d95436;
        stroke-width: 0px;
      }
    </style>
  </defs>
  <g id="Design">
    <g>
      <path class="cls-1" d="M82.59,91.34H7v-24.57h50.93v-7H7v-24.57h34.61v-7H0v101.72h89.59v-48.51h-7v9.94ZM7,122.91v-24.57h75.59v24.57H7Z"/>
      <path class="cls-1" d="M46.49,41.83l.07.3,2.03.52c.22.53.49,1.04.8,1.53l-.72,1.98.2.23c.73.83,1.59,1.54,2.54,2.11l.26.15,1.81-1.08c.53.22,1.09.39,1.65.51l.88,1.9.3.02c.2.01.39.02.59.02.33,0,.66-.02.99-.05.57-.05,1.15-.16,1.72-.3l.29-.07.5-1.99c.54-.22,1.06-.49,1.54-.81l1.88.69.23-.2c.84-.75,1.56-1.64,2.13-2.63l.15-.26-.99-1.67c.23-.55.41-1.11.53-1.68l1.72-.8.02-.3c.03-.54.02-1.09-.03-1.64-.06-.6-.16-1.2-.32-1.78l-.08-.29-1.79-.46c-.23-.55-.5-1.08-.83-1.57l.63-1.72-.2-.22c-.76-.88-1.66-1.62-2.67-2.21l-.25-.15-1.58.94c-.55-.23-1.12-.41-1.7-.53l-.78-1.68-.3-.02c-.61-.05-1.22-.04-1.81.01-.55.05-1.09.14-1.62.27l-.29.07-.47,1.84c-.54.22-1.07.5-1.56.82l-1.82-.67-.23.19c-.86.74-1.6,1.61-2.19,2.58l-.16.26,1.02,1.72c-.23.53-.4,1.09-.51,1.66l-1.86.86-.02.3c-.04.57-.03,1.16.02,1.75.05.52.14,1.04.26,1.56ZM56.53,34.26c.16-.02.32-.02.48-.02,1.19,0,2.34.41,3.26,1.18,1.05.87,1.7,2.11,1.83,3.47.26,2.81-1.82,5.31-4.63,5.57-1.36.13-2.69-.29-3.74-1.16-1.05-.87-1.7-2.11-1.83-3.47-.26-2.81,1.82-5.31,4.63-5.57Z"/>
      <path class="cls-1" d="M105.85,18.18l-.1-.81-3.4-1.02c-.17-.71-.38-1.41-.64-2.1l2.18-2.8-.39-.72c-.8-1.48-1.78-2.86-2.92-4.12l-.55-.61-3.23,1.13c-.61-.54-1.26-1.03-1.93-1.48l.11-3.42-.73-.35c-1.5-.73-3.09-1.27-4.72-1.62l-.81-.17-1.88,2.71c-.55-.06-1.11-.09-1.67-.09-.35,0-.7,0-1.04.02l-1.85-2.73-.8.14c-1.61.29-3.19.77-4.69,1.44l-.76.34.07,3.22c-.85.5-1.66,1.06-2.41,1.69l-3.04-1.1-.56.59c-1.11,1.17-2.08,2.47-2.89,3.87l-.42.72,1.96,2.57c-.4.93-.72,1.89-.95,2.87l-3.13.9-.1.82c-.1.79-.15,1.6-.16,2.41,0,.81.04,1.61.13,2.4l.09.82,3.18.96c.23.95.54,1.89.92,2.79l-2.05,2.64.41.72c.79,1.4,1.75,2.72,2.84,3.9l.55.6,3.27-1.14c.69.57,1.43,1.1,2.2,1.56l-.12,3.47.76.34c1.49.68,3.06,1.18,4.66,1.49l.8.15,2.05-2.95c.29.02.59.03.89.03.57,0,1.02-.02,1.53-.06l2.01,2.97.81-.16c1.63-.33,3.22-.85,4.72-1.56l.73-.34-.08-3.67c.61-.39,1.2-.83,1.76-1.29l3.42,1.24.56-.6c1.15-1.24,2.15-2.61,2.96-4.08l.4-.71-2.21-2.91c.26-.65.48-1.32.66-2l3.48-1,.1-.81c.1-.83.16-1.67.17-2.52,0-.86-.05-1.71-.15-2.55ZM91.37,26.85c-1.7,1.68-4.04,2.63-6.35,2.59-4.94-.03-8.93-4.07-8.9-9.01.01-2.39.96-4.64,2.66-6.32,1.69-1.67,3.92-2.59,6.3-2.59.02,0,.04,0,.06,0,4.94.03,8.93,4.07,8.9,9.01-.01,2.39-.96,4.64-2.66,6.32Z"/>
      <path class="cls-1" d="M95.97,54.42l-.15-.5-3.21-1.08c-.71-1.5-1.67-2.86-2.85-4.05l.05-3.24-.44-.31c-1.85-1.31-3.9-2.22-6.11-2.73l-.51-.12-2.39,2.11c-.78-.05-1.56-.04-2.33.03-.84.08-1.68.23-2.5.45l-2.71-1.62-.48.21c-2.1.94-3.97,2.27-5.55,3.96l-.36.38.66,3.23c-.82,1.26-1.43,2.63-1.83,4.07l-2.98,1.66-.06.52c-.13,1.16-.15,2.36-.04,3.55.1,1.07.3,2.14.61,3.2l.15.51,3.42,1.14c.64,1.24,1.46,2.39,2.43,3.4l-.06,3.75.42.31c1.8,1.33,3.8,2.28,5.95,2.83l.52.13,2.85-2.52c.76.05,1.52.04,2.25-.03.67-.06,1.35-.17,2.01-.33l3.3,1.98.48-.22c1.98-.9,3.76-2.15,5.28-3.72l.37-.38-.74-3.62c.89-1.3,1.57-2.72,2-4.22l3.12-1.74.05-.53c.09-1.05.09-2.1,0-3.12-.11-1.13-.32-2.25-.65-3.35ZM79.6,66.95c-4.15.38-7.85-2.68-8.23-6.84-.19-2.01.42-3.98,1.71-5.53,1.29-1.56,3.11-2.51,5.12-2.7.24-.02.47-.03.7-.03,3.86,0,7.17,2.95,7.53,6.87.38,4.16-2.68,7.85-6.84,8.23Z"/>
    </g>
  </g>
</svg>