<?xml version="1.0" encoding="UTF-8"?>
<svg id="Layer_2" data-name="Layer 2" xmlns="http://www.w3.org/2000/svg" viewBox="0 0 159.14 145.1">
  <defs>
    <style>
      .cls-1 {
        fill: #d95436;
        opacity: .7;
        stroke-width: 0px;
      }
    </style>
  </defs>
  <g id="Design">
    <g>
      <path class="cls-1" d="M97.27,68.61c-11.23-9.25-29.1,11.01-36.37,20-7.27,8.99-23.98,30.21-12.68,39.52s32.21-14.42,36.19-19.42c3.98-5.01,24.39-30.58,12.85-40.09Z"/>
      <path class="cls-1" d="M72.72,108.87c4.89-.89,29.48-4.57,31.35,9.02,1.87,13.59-19.98,16.83-28.84,18.35-8.86,1.52-28.37,3.62-30.37-8.95-2.2-13.86,22.97-17.53,27.86-18.41Z"/>
      <path class="cls-1" d="M121.6,94.58c2.2,4.79,12.48,29.08-.98,34.59-13.46,5.51-22.57-16.08-26.47-24.78-3.9-8.7-11.21-28.19,1.18-33.56,13.66-5.92,24.07,18.97,26.28,23.76Z"/>
      <path class="cls-1" d="M120.72,71.5c4.85.69,28.97,4.87,26.5,18.14-2.47,13.28-23.89,9.54-32.65,8.21s-27.64-5.41-25.61-17.78c2.24-13.64,26.9-9.26,31.75-8.57Z"/>
      <path class="cls-1" d="M90.97,55.68c2.47-3.36,15.45-19.65,26.93-10.4,11.48,9.25-.07,23.7-4.61,29.72s-15.46,18.32-26.26,9.91c-11.91-9.27,1.46-25.87,3.93-29.23Z"/>
      <path class="cls-1" d="M77.12,118.22c4.83.27,28.92,2.37,27.6,15.65-1.32,13.27-22.72,11.38-31.45,10.81-8.72-.58-27.66-3.02-26.69-15.36,1.07-13.61,25.71-11.36,30.54-11.09Z"/>
      <g>
        <path class="cls-1" d="M108.58,17.3c2.84,3.05,16.46,18.78,6.2,27.53-10.26,8.75-22.34-5.24-27.41-10.8-5.06-5.56-15.21-18.49-5.83-26.79,10.34-9.14,24.2,7.02,27.04,10.06Z"/>
        <path class="cls-1" d="M113.77,17.94c1.76,3.61,9.89,21.99-2.06,27.17-11.95,5.18-19.15-11.15-22.25-17.72-3.1-6.57-8.81-21.37,2.19-26.38,12.14-5.52,20.36,13.32,22.12,16.93Z"/>
        <path class="cls-1" d="M134.82,37.37c3.86.85,21.16,6.21,18.74,18.19-2.37,11.71-19.33,7.91-26.28,6.3-6.95-1.62-21.84-6.24-18.99-17.77,3.15-12.71,22.68-7.57,26.53-6.72Z"/>
        <path class="cls-1" d="M157.19,53.28c1.85.37,2.2,2.03,1.81,3.99s-1.36,3.48-3.22,3.12-3.76-2.56-3.37-4.52c.39-1.96,2.92-2.96,4.78-2.59Z"/>
      </g>
      <path class="cls-1" d="M.4,80.97c1.74-1.48,3.58-.37,4.49.54l9.3,9.76.23-.14c9.88-6.43,23.7,8.2,26.7,11.06,3.19,3.05,18.62,18.83,8.79,28.27-9.83,9.45-23.52-4.59-29.23-10.16-5.34-5.21-15.84-16.94-9.82-25.74-.31-.35-4.34-4.88-7.92-7.67-2.9-2.27-3.46-4.99-2.54-5.91Z"/>
    </g>
  </g>
</svg>