<?xml version="1.0" encoding="UTF-8"?>
<svg id="Layer_2" data-name="Layer 2" xmlns="http://www.w3.org/2000/svg" viewBox="0 0 139.06 141.72">
  <defs>
    <style>
      .cls-1 {
        fill: #d95436;
        stroke-width: 0px;
      }
    </style>
  </defs>
  <g id="Design">
    <g>
      <path class="cls-1" d="M137.04,68.07c-.94-.04-2.01.36-2.75,1.04-.84-9.09-14.66-11.1-17.81-11.3-1.92-.12-8.39-.74-13.67.89-.17-.76-.41-1.52-.73-2.27-1.09-5.25-4.44-10.4-5.52-11.96-1.92-2.76-11.16-17.27-20.48-11.13-1.53,1-2.55,2.2-3.2,3.52-1.57.46-3.05,1.38-4.34,2.94-6.68,8.07,3.38,17.45,8.29,21.39,2.18,1.75,5.72,4.7,9.63,6.68-5.19,3.78-8.17,11.5-8.92,13.65-.27.79-.86,2.35-1.43,4.31-5.55-.83-11.22-.92-14.96-.89-4.6.04-12.12.18-18.75,1.63-2.52-4.79-6.61-8.93-7.99-10.24-2.51-2.4-14.07-14.64-22.35-9.26l-.19.12-7.78-8.16c-.77-.76-2.3-1.69-3.76-.45-.76.77-.3,3.05,2.13,4.95,2.99,2.34,6.37,6.13,6.62,6.42-5.03,7.37,3.75,17.18,8.22,21.54,1.71,1.67,4.28,4.24,7.24,6.5-2.87,1.78-5.44,3.8-7.25,5.33-5.6,4.71-19.6,15.99-12.69,24.76,2.42,3.07,5.91,3.5,9.57,2.66-.02,4.28,1.34,8.01,5.46,9.84,10.49,4.66,18.71-14.45,20.23-18.32.73-1.85,3.05-7.28,4.09-12.94,6.94,1.45,14.2,1.55,16.73,1.5,2.4-.04,9.22-.16,16.02-1.39,1.01,4.13,2.61,8.08,3.83,10.78,3.26,7.28,10.88,25.35,22.15,20.74,8.32-3.4,5.81-15.36,3.18-23.01,7.88,2.32,17.97,3.83,21.03-3.94,4.13-10.52-15.02-17.78-18.89-19.12-1.32-.45-4.46-1.62-8.18-2.54.12-.32.24-.63.34-.92,1.17-3.24,3.38-9.01,3.28-14.33,3.51,1.27,7.39,1.73,9.97,1.92,5.51.4,18.32,1.23,20.57-6.53.66.91,1.79,1.58,2.8,1.62,1.58.06,2.19-1.32,2.26-2.99s-.43-3-2.01-3.07Z"/>
      <path class="cls-1" d="M58.55,71.06l5.39-2.92-21.81-40.29c5.66-4.69,7.43-12.89,3.8-19.6C41.81.61,32.24-2.24,24.61,1.89c-7.63,4.13-10.48,13.7-6.35,21.33,3.63,6.71,11.46,9.71,18.49,7.54l9.77,18.04-8.93,4.83,2.92,5.39,8.93-4.83,3.08,5.69-8.93,4.83,2.92,5.39,8.93-4.83,3.12,5.77ZM23.65,20.3c-2.52-4.66-.78-10.49,3.87-13.01s10.49-.78,13.01,3.87c2.52,4.66.78,10.49-3.87,13.01-4.66,2.52-10.49.78-13.01-3.87Z"/>
    </g>
  </g>
</svg>