<?xml version="1.0" encoding="UTF-8"?>
<svg id="Layer_2" data-name="Layer 2" xmlns="http://www.w3.org/2000/svg" viewBox="0 0 214.2 238.48">
  <defs>
    <style>
      .cls-1 {
        fill: #d95436;
        opacity: .7;
        stroke-width: 0px;
      }
    </style>
  </defs>
  <g id="Design">
    <g>
      <path class="cls-1" d="M152.35,99.7c-14.76-14.65-42.89,11.83-54.42,23.68-11.53,11.85-38.13,39.84-23.27,54.59,15.27,15.16,47.77-16.28,54.1-22.88,6.33-6.61,38.77-40.33,23.59-55.39Z"/>
      <path class="cls-1" d="M122.31,192.02c2.02,6.82,11.07,41.2-7.96,45.96-19.02,4.76-27.03-25.79-30.56-38.15-3.53-12.36-9.55-39.77,8.01-44.56,19.37-5.28,28.48,29.93,30.5,36.75Z"/>
      <path class="cls-1" d="M173.04,131.03c3.14,6.86,17.77,41.61-1.49,49.45-19.27,7.84-32.24-23.05-37.79-35.51-5.55-12.45-15.97-40.34,1.77-47.99,19.55-8.43,34.38,27.18,37.52,34.04Z"/>
      <path class="cls-1" d="M168.92,80.65c6.78-1.73,40.95-9.36,44.93,9.53,3.98,18.9-26.38,25.64-38.68,28.65-12.29,3.02-39.49,7.92-43.55-9.54-4.48-19.25,30.51-26.91,37.29-28.65Z"/>
      <path class="cls-1" d="M117.1,76.14c-.39-5.95-1.2-35.72,19.88-36.18,21.08-.46,21.75,25.99,22.33,36.74.58,10.75-.03,34.27-19.59,35.02-21.57.82-22.23-29.64-22.62-35.59Z"/>
      <path class="cls-1" d="M87.87,206.53c-2.47,6.46-15.81,38.37-33.32,30.8-17.51-7.57-5.63-35.9-1.05-47.54,4.58-11.63,16.14-36.37,32.53-29.68,18.08,7.37,4.3,39.96,1.83,46.42Z"/>
      <g>
        <path class="cls-1" d="M109.4,18.19c5.9.75,35.26,5.57,32,24.58-3.27,19.01-29.35,14.69-40,13.21-10.65-1.48-33.63-6.4-30.91-24.1,3-19.51,33.01-14.44,38.92-13.69Z"/>
        <path class="cls-1" d="M119.47,13.93c4.46,3.63,26.06,22.57,13.68,36.48-12.38,13.91-31.55-2.94-39.53-9.6-7.98-6.65-24.29-22.42-13.03-35.54,12.42-14.46,34.43,5.02,38.88,8.65Z"/>
        <path class="cls-1" d="M150.45,15.4c5.04-2.55,29.05-12.26,37.21,3.2,7.97,15.11-14.25,26.25-23.41,30.75-9.16,4.5-29.83,12.84-37.1-2.51-8.02-16.93,18.27-28.89,23.31-31.44Z"/>
        <path class="cls-1" d="M189.62,12.79c2.38-1.27,4.27.26,5.62,2.79s1.64,5.09-.75,6.36c-2.38,1.27-6.47.57-7.82-1.96-1.34-2.53.56-5.92,2.95-7.19Z"/>
      </g>
      <path class="cls-1" d="M.3,103.93c2.02-2.57,4.91-1.54,6.45-.52l15.82,11.01.28-.26c12.01-11.83,35.55,4.72,40.57,7.87,5.35,3.36,31.47,21.06,20.39,37.1-11.08,16.04-34.27.28-43.86-5.89-8.97-5.78-27.02-19.21-21.12-33.26-.53-.4-7.48-5.6-13.28-8.49-4.71-2.35-6.27-6.01-5.25-7.56Z"/>
    </g>
  </g>
</svg>