<?xml version="1.0" encoding="UTF-8"?>
<svg id="Layer_2" data-name="Layer 2" xmlns="http://www.w3.org/2000/svg" viewBox="0 0 160.15 147.1">
  <defs>
    <style>
      .cls-1 {
        fill: #fbb03b;
      }

      .cls-1, .cls-2 {
        stroke-width: 0px;
      }

      .cls-3 {
        opacity: .8;
      }

      .cls-2 {
        fill: #fff;
      }
    </style>
  </defs>
  <g id="Design">
    <g>
      <g id="OBJECTS" class="cls-3">
        <g id="g237701">
          <path id="path237629-7" class="cls-1" d="M53.85,0c-9.51,1.29-13.63,7.2-13.63,10.29.26,3.34,2.06,3.86,1.29,5.4-.51,1.29-1.29,4.11-1.54,4.63-1.29,1.03-2.57,2.06-3.86,3.09-2.31,2.06-4.63,4.37-6.43,6.69-.26-1.29-.77-3.86.26-5.91,1.03-1.8,2.31-2.57,3.34-4.11.51-.77,1.03-1.54,1.29-2.83.77-1.8.51-3.6,0-5.14-.26-1.54-.51-3.09.51-4.63-3.34,1.54-6.17,3.6-7.97,5.91-2.83,3.6-3.34,7.2-2.57,9,1.29,3.34,3.34,3.09,3.34,4.63,0,1.8,0,3.86.26,4.89-2.83,3.86-4.89,7.97-6.94,12.34-.77-1.29-2.06-3.6-1.29-5.91.77-2.83,2.06-3.86,2.31-8.23.26-4.11-3.86-6.17-2.57-9.77-7.71,7.46-7.71,14.92-5.4,17.49,2.31,2.83,4.11,2.06,4.63,3.86s1.03,3.6,1.54,4.89c-1.54,4.37-2.83,9-3.86,13.63-1.03-1.03-2.83-3.34-2.83-5.66.26-3.6,1.29-4.11.26-8.74-1.03-4.11-5.66-5.14-5.4-9-5.66,9-3.6,16.46-.77,18.77,3.09,2.31,4.63,1.03,5.66,2.83.77,1.8,1.8,3.34,2.57,4.37,0,.51-.26,1.03-.26,1.54-.51,4.11-.77,8.49-.26,12.6-1.29-.77-3.6-2.57-4.11-4.89-.51-3.09,0-4.89-1.29-8.49,0-.26-.26-.51-.26-.77-1.8-4.11-6.94-4.11-7.46-7.97-1.03,2.57-1.29,5.14-1.54,7.2-.51,6.94,2.31,11.06,4.89,12.34,3.6,1.54,4.89-.26,6.43,1.29,1.29,1.54,2.83,2.83,3.86,3.6.77,4.63,2.06,9.26,4.37,13.37h-.26c-1.54-.26-4.37-1.29-5.66-3.34-1.8-3.09-1.54-4.89-4.63-8.49-1.54-1.8-3.34-2.31-5.4-3.09-1.8-.51-3.6-1.29-4.37-3.34-1.03,12.6,6.17,19.29,9.77,19.54,4.11.26,4.89-2.06,6.69-1.03.51.26.77.51,1.29.77,1.54.77,2.57,1.03,3.6,1.54,2.31,4.11,5.4,7.71,8.74,11.06-1.8.26-4.63.51-6.69-1.29-2.83-2.31-3.34-4.11-7.71-6.43-1.8-1.03-3.34-1.03-5.14-1.03-2.31,0-4.89.26-6.43-1.8.51,1.54,1.03,3.09,1.54,4.37,4.63,9.51,11.57,12.09,14.92,11.06,4.11-1.29,3.86-3.6,6.17-3.34,2.06.26,3.86.26,5.4.26,1.29,1.29,2.83,2.31,4.37,3.6,2.31,1.54,4.63,3.09,6.94,4.63-1.54.77-4.37,1.54-6.69.51-1.03-.51-2.06-1.03-2.83-1.54-1.8-1.03-3.09-1.8-6.43-2.57-2.57-.51-4.37.26-6.43,1.03-1.8.77-3.86,1.29-5.66.26,3.86,5.66,8.49,8.74,12.34,9.77,3.34,1.03,6.17.77,7.71-.26,3.6-2.31,3.09-4.63,5.14-4.89,1.8-.26,3.86-.51,5.4-1.03,3.34,1.8,6.94,3.34,10.54,4.89,4.11,1.54,8.23,2.83,12.6,3.86,4.11,1.03,11.57,1.8,15.17,5.14,5.14,4.63,7.71,15.69,7.71,15.69l2.83-1.8s-3.86-14.14-10.29-17.49c-4.63-2.31-11.57-3.86-15.69-4.37-3.86-.77-7.71-2.06-11.32-3.34-3.6-1.29-6.94-2.83-10.29-4.63-.51-1.29-1.29-3.6-1.8-4.89-.51-1.8,1.29-2.57,2.31-6.69.51-1.8,0-4.11-1.03-6.17-1.03-2.57-3.09-4.63-5.91-6.69.51,2.57-3.86,6.17-3.09,10.29.51,2.83,1.54,3.86,2.83,4.89.51.51,1.29,1.03,2.06,1.8,1.54,1.54,2.06,4.37,2.06,6.17-2.31-1.29-4.63-2.83-6.69-4.37-1.54-1.03-2.83-2.06-4.37-3.34-.26-1.54-.26-3.09-.51-5.14,0-1.8,1.8-2.06,3.86-5.66,1.8-3.09,1.29-7.46-1.03-11.32-.26-.51-.77-1.03-1.29-1.54-.26,1.29-2.06,2.57-3.86,4.11-1.03,1.03-2.06,2.31-2.31,3.86-.51,3.86,1.29,5.14,2.57,7.46,1.03,1.8.77,4.63.51,6.17-3.34-3.09-6.17-6.69-8.49-10.29.26-1.03.51-2.06.77-3.6.26-.51.26-1.03.51-1.29.51-1.8,2.31-1.29,5.4-3.86,2.83-2.57,4.11-6.94,2.57-12.6-.77,1.03-2.31,1.54-3.86,2.31s-3.6,1.54-4.37,3.09c-1.8,3.34-.77,5.14-.26,7.46.26,1.8-1.03,4.37-1.54,5.66v.26h0c-2.06-3.86-3.34-8.23-4.11-12.6.51-.77,2.06-2.83,2.83-4.11,1.03-1.54,2.57-.26,6.17-1.8,2.57-1.03,4.89-3.6,5.66-6.94.51-1.54.77-3.34.77-5.14-1.8,2.06-6.69.77-9.51,3.6l-.51.51c-2.06,2.31-1.8,4.11-2.31,6.69-.51,1.8-2.57,3.86-3.6,4.89-.51-4.11-.51-8.23,0-12.09,0-.51.26-1.03.26-1.54.77-.51,2.83-2.31,3.86-3.09,1.29-1.03,2.57.51,6.17-.26,3.86-.51,7.46-4.37,8.49-10.8-2.06,1.54-6.17-.77-9.51,1.29-3.09,2.06-2.83,4.11-4.11,6.43-.77,1.8-3.34,3.09-4.63,3.86.77-4.63,2.06-9,3.6-13.37.77-.51,3.09-1.54,4.37-2.31,1.54-.77,2.31.77,5.91,1.29,3.6.26,7.46-2.31,10.03-7.46-2.31.77-5.4-2.31-9-1.29-3.34,1.03-3.6,3.09-5.14,4.89-1.29,1.54-3.86,2.31-5.14,2.57,1.8-4.37,3.86-8.49,6.43-12.09.77-.26,3.34-.77,4.63-.77,1.54-.26,1.8,1.29,4.89,2.57,1.8.77,4.37.77,6.69-.26,1.29-.77,2.83-1.8,4.37-3.34-2.31,0-4.37-3.86-7.71-3.86-1.03,0-1.8.26-2.57.51-1.54.51-2.06,1.54-3.6,2.31-1.54,1.03-4.11,1.03-5.4.77,1.8-2.31,3.86-4.63,6.17-6.69,1.29-1.03,2.57-2.06,3.86-3.09.51,0,3.34.51,4.63.77,1.54.26,1.29,1.8,3.6,4.11,2.31,2.06,6.69,2.57,11.83,0-2.31-.51-3.09-4.89-6.17-5.91-3.09-1.03-4.37.26-6.43.77-1.8.51-4.37-.51-5.4-1.03,1.54-1.03,3.34-2.06,4.89-2.83,1.29-.26,2.83-.51,4.37-.51,3.09.26,8.23-.51,11.32-1.8,3.34-1.29,5.14-2.83,9.26-4.11-2.83-1.8-8.49-2.83-12.09-2.06-3.09.51-5.91,1.54-8.74,4.11-1.29,1.29-2.57,2.06-3.6,2.83-2.06,1.03-4.11,2.06-5.91,3.09,0-1.29.51-3.86,2.31-5.4,2.31-1.8,3.86-1.8,6.17-4.89,2.06-2.31.26-6.17,3.09-7.97h0Z"/>
          <path id="path237697" class="cls-1" d="M106.31,0c9.51,1.29,13.63,7.2,13.63,10.29-.26,3.34-2.06,3.86-1.29,5.4.51,1.29,1.29,4.11,1.54,4.63,1.29,1.03,2.57,2.06,3.86,3.09,2.31,2.06,4.63,4.37,6.43,6.69.26-1.29.77-3.86-.26-5.91-1.03-1.8-2.31-2.57-3.34-4.11-.51-.77-1.03-1.54-1.29-2.83-.77-1.8-.51-3.6,0-5.14.26-1.54.51-3.09-.51-4.63,3.34,1.54,6.17,3.6,7.97,5.91,2.83,3.6,3.34,7.2,2.57,9-1.29,3.34-3.34,3.09-3.34,4.63,0,1.8,0,3.86-.26,4.89,2.83,3.86,4.89,7.97,6.94,12.34.77-1.29,2.06-3.6,1.29-5.91-.77-2.83-2.06-3.86-2.31-8.23-.26-4.11,3.86-6.17,2.57-9.77,7.71,7.46,7.71,14.92,5.4,17.49-2.31,2.83-4.11,2.06-4.63,3.86s-1.03,3.6-1.54,4.89c1.54,4.37,2.83,9,3.86,13.63,1.03-1.03,2.83-3.34,2.83-5.66-.26-3.6-1.29-4.11-.26-8.74,1.03-4.11,5.66-5.14,5.4-9,5.66,9,3.6,16.46.77,18.77-3.09,2.31-4.63,1.03-5.66,2.83-.77,1.8-1.8,3.34-2.57,4.37,0,.51.26,1.03.26,1.54.51,4.11.77,8.49.26,12.6,1.29-.77,3.6-2.57,4.11-4.89.51-3.09,0-4.89,1.29-8.49,0-.26.26-.51.26-.77,1.8-4.11,6.94-4.11,7.46-7.97,1.03,2.57,1.29,5.14,1.54,7.2.51,6.94-2.31,11.06-4.89,12.34-3.6,1.54-4.89-.26-6.43,1.29-1.29,1.54-2.83,2.83-3.86,3.6-.77,4.63-2.06,9.26-4.37,13.37h.26c1.54-.26,4.37-1.29,5.66-3.34,1.8-3.09,1.54-4.89,4.63-8.49,1.54-1.8,3.34-2.31,5.4-3.09,1.8-.51,3.6-1.29,4.37-3.34,1.03,12.6-6.17,19.29-9.77,19.54-4.11.26-4.89-2.06-6.69-1.03-.51.26-.77.51-1.29.77-1.54.77-2.57,1.03-3.6,1.54-2.31,4.11-5.4,7.71-8.74,11.06,1.8.26,4.63.51,6.69-1.29,2.83-2.31,3.34-4.11,7.71-6.43,1.8-1.03,3.34-1.03,5.14-1.03,2.31,0,4.89.26,6.43-1.8-.51,1.54-1.03,3.09-1.54,4.37-4.63,9.51-11.57,12.09-14.92,11.06-4.11-1.29-3.86-3.6-6.17-3.34-2.06.26-3.86.26-5.4.26-1.29,1.29-2.83,2.31-4.37,3.6-2.31,1.54-4.63,3.09-6.94,4.63,1.54.77,4.37,1.54,6.69.51,1.03-.51,2.06-1.03,2.83-1.54,1.8-1.03,3.09-1.8,6.43-2.57,2.57-.51,4.37.26,6.43,1.03,1.8.77,3.86,1.29,5.66.26-3.86,5.66-8.49,8.74-12.34,9.77-3.34,1.03-6.17.77-7.71-.26-3.6-2.31-3.09-4.63-5.14-4.89-1.8-.26-3.86-.51-5.4-1.03-3.34,1.8-6.94,3.34-10.54,4.89-4.11,1.54-8.23,2.83-12.6,3.86-4.11,1.03-11.57,1.8-15.17,5.14-5.14,4.63-7.71,15.69-7.71,15.69l-3.34-1.29s3.86-14.14,10.29-17.49c4.63-2.31,11.57-3.86,15.69-4.37,3.86-.77,7.71-2.06,11.32-3.34s6.94-2.83,10.29-4.63c.51-1.29,1.29-3.6,1.8-4.89.51-1.8-1.29-2.57-2.31-6.69-.51-1.8,0-4.11,1.03-6.17,1.03-2.57,3.09-4.63,5.91-6.69-.51,2.57,3.86,6.17,3.09,10.29-.51,2.83-1.54,3.86-2.83,4.89-.51.51-1.29,1.03-2.06,1.8-1.54,1.54-2.06,4.37-2.06,6.17,2.31-1.29,4.63-2.83,6.69-4.37,1.54-1.03,2.83-2.06,4.37-3.34.26-1.54.26-3.09.51-5.14,0-1.8-1.8-2.06-3.86-5.66-1.8-3.09-1.29-7.46,1.03-11.32.26-.51.77-1.03,1.29-1.54.26,1.29,2.06,2.57,3.86,4.11,1.03,1.03,2.06,2.31,2.31,3.86.51,3.86-1.29,5.14-2.57,7.46-1.03,1.8-.77,4.63-.51,6.17,3.34-3.09,6.17-6.69,8.49-10.29-.26-1.03-.51-2.06-.77-3.6-.26-.51-.26-1.03-.51-1.29-.51-1.8-2.31-1.29-5.4-3.86-2.83-2.57-4.11-6.94-2.57-12.6.77,1.03,2.31,1.54,3.86,2.31s3.6,1.54,4.37,3.09c1.8,3.34.77,5.14.26,7.46-.26,1.8,1.03,4.37,1.54,5.66v.26h0c2.06-3.86,3.34-8.23,4.11-12.6-.51-.77-2.06-2.83-2.83-4.11-1.03-1.54-2.57-.26-6.17-1.8-2.57-1.03-4.89-3.6-5.66-6.94-.51-1.54-.77-3.34-.77-5.14,1.8,2.06,6.69.77,9.51,3.6l.51.51c2.06,2.31,1.8,4.11,2.31,6.69.51,1.8,2.57,3.86,3.6,4.89.51-4.11.51-8.23,0-12.09,0-.51-.26-1.03-.26-1.54-.77-.51-2.83-2.31-3.86-3.09-1.29-1.03-2.57.51-6.17-.26-3.86-.51-7.46-4.37-8.49-10.8,2.06,1.54,6.17-.77,9.51,1.29,3.09,2.06,2.83,4.11,4.11,6.43.77,1.8,3.34,3.09,4.63,3.86-.77-4.63-2.06-9-3.6-13.37-.77-.51-3.09-1.54-4.37-2.31-1.54-.77-2.31.77-5.91,1.29-3.6.26-7.46-2.31-10.03-7.46,2.31.77,5.4-2.31,9-1.29,3.34,1.03,3.6,3.09,5.14,4.89,1.29,1.54,3.86,2.31,5.14,2.57-1.8-4.37-3.86-8.49-6.43-12.09-.77-.26-3.34-.77-4.63-.77-1.54-.26-1.8,1.29-4.89,2.57-1.8.77-4.37.77-6.69-.26-1.29-.77-2.83-1.8-4.37-3.34,2.31,0,4.37-3.86,7.71-3.86,1.03,0,1.8.26,2.57.51,1.54.51,2.06,1.54,3.6,2.31,1.54,1.03,4.11,1.03,5.4.77-1.8-2.31-3.86-4.63-6.17-6.69-1.29-1.03-2.57-2.06-3.86-3.09-.51,0-3.34.51-4.63.77-1.54.26-1.29,1.8-3.6,4.11-2.31,2.06-6.69,2.57-11.83,0,2.31-.51,3.09-4.89,6.17-5.91,3.09-1.03,4.37.26,6.43.77,1.8.51,4.37-.51,5.4-1.03-1.54-1.03-3.34-2.06-4.89-2.83-1.29-.26-2.83-.51-4.37-.51-3.09.26-8.23-.51-11.32-1.8-3.34-1.29-5.14-2.83-9.26-4.11,2.83-1.8,8.49-2.83,12.09-2.06,3.09.51,5.91,1.54,8.74,4.11,1.29,1.29,2.57,2.06,3.6,2.83,2.06,1.03,4.11,2.06,5.91,3.09,0-1.29-.51-3.86-2.31-5.4-2.31-1.8-3.86-1.8-6.17-4.89-1.8-2.83.26-6.69-2.57-8.49h0Z"/>
        </g>
      </g>
      <g>
        <rect class="cls-1" x="41.79" y="30.08" width="76.58" height="76.58" rx="38.29" ry="38.29"/>
        <path class="cls-2" d="M103.98,65.89c-3.26,3.26-8.57,3.26-11.83,0-.03-.03-.05-.05-.08-.08l-14.55,14.55s.05.05.08.08c3.26,3.26,3.26,8.57,0,11.83-3.26,3.26-8.57,3.26-11.83,0-1.97-1.97-2.75-4.69-2.34-7.26-2.57.41-5.29-.37-7.25-2.33-3.26-3.26-3.26-8.57,0-11.83s8.57-3.26,11.83,0c.03.03.05.05.08.08l14.55-14.55s-.05-.05-.08-.08c-3.26-3.26-3.26-8.57,0-11.83s8.57-3.26,11.83,0c1.97,1.97,2.75,4.69,2.34,7.26,2.56-.41,5.29.37,7.25,2.34,3.26,3.26,3.26,8.57,0,11.83ZM74.01,79.39l17.09-17.09c.73-.73,1.96-.57,2.48.32.22.38.49.72.8,1.04,2.03,2.03,5.33,2.03,7.35,0s2.03-5.33,0-7.35c-2.01-2.01-5.3-2.03-7.33-.03l-.03.03c-.62.62-1.62.62-2.24,0s-.62-1.62,0-2.24c2.03-2.03,2.03-5.33,0-7.35-2.03-2.03-5.33-2.03-7.35,0s-2.03,5.33,0,7.35c.31.31.66.58,1.04.8.89.53,1.05,1.75.31,2.48l-17.09,17.09c-.73.73-1.96.57-2.48-.32-.22-.38-.49-.72-.8-1.04-2.03-2.03-5.33-2.03-7.35,0s-2.03,5.33,0,7.35,5.3,2.03,7.33.02h.01s.01-.02.01-.02c.62-.62,1.62-.62,2.24,0s.62,1.62,0,2.24c-2.03,2.03-2.03,5.33,0,7.35s5.33,2.03,7.35,0,2.03-5.33,0-7.35c-.31-.31-.66-.58-1.04-.8-.89-.53-1.05-1.75-.32-2.48Z"/>
      </g>
    </g>
  </g>
</svg>