<?xml version="1.0" encoding="UTF-8"?>
<svg id="Layer_2" data-name="Layer 2" xmlns="http://www.w3.org/2000/svg" viewBox="0 0 339.03 358.18">
  <defs>
    <style>
      .cls-1 {
        fill: #fbb03b;
      }

      .cls-1, .cls-2, .cls-3 {
        stroke-width: 0px;
      }

      .cls-2 {
        fill: #1a1e43;
      }

      .cls-3 {
        fill: #d95436;
        opacity: .7;
      }
    </style>
  </defs>
  <g id="Design">
    <g>
      <g>
        <path class="cls-2" d="M194.65,268.57h40.75v89.61h-40.75c-2.33,0-4.21-1.88-4.21-4.21v-81.21c0-2.31,1.88-4.19,4.21-4.19Z"/>
        <rect class="cls-2" x="244.78" y="268.57" width="18.77" height="89.61"/>
        <path class="cls-2" d="M317.9,288.53v65.45c0,2.33-1.87,4.2-4.2,4.2h-40.77v-89.61h15.32l3.05.08,26.59,19.89Z"/>
        <g>
          <path class="cls-2" d="M222.71,181.25l41.54,32.4-10.76,13.8-41.54-32.4c-1.64-1.28-1.93-3.64-.66-5.26l6.15-7.88c1.28-1.64,3.64-1.93,5.28-.65Z"/>
          <rect class="cls-2" x="264.91" y="222.71" width="17.5" height="18.77" transform="translate(-77.65 305.15) rotate(-52.05)"/>
          <path class="cls-2" d="M336.05,274.42l-6.15,7.88c-1.27,1.63-3.63,1.92-5.27.64l-41.55-32.41,10.76-13.8,41.55,32.41c1.64,1.28,1.93,3.64.65,5.28Z"/>
          <g>
            <path class="cls-2" d="M320.96,247.24c-4.14-1.07-8.42-4.54-12.28-7.67-.85-.69-1.65-1.34-2.39-1.91-4.71-3.62-9.39-7.28-14.07-10.94l-8.88-6.91c-.9-.7-1.37-1.89-1.18-3.01.19-1.12,1.02-2.09,2.1-2.45l24.75-8.39c10.76-3.65,22.63.95,27.61,10.7h0c4.31,8.43,2.76,18.67-3.94,26.09-2.65,2.93-5.65,4.59-8.66,4.8-1.01.07-2.03-.05-3.06-.32ZM291.56,218.4l4.46,3.48c4.67,3.65,9.34,7.3,14.03,10.91.78.6,1.62,1.28,2.51,2,3.14,2.55,8.4,6.81,11.03,6.62,1.76-.12,3.43-1.58,4.52-2.79,4.97-5.5,6.16-13.01,3.03-19.15h0c-3.6-7.04-12.26-10.34-20.14-7.67l-19.43,6.59Z"/>
            <path class="cls-2" d="M284.34,220.28c-.41-.11-.8-.29-1.14-.56l-8.88-6.95c-4.68-3.64-9.36-7.29-14.02-10.97-.73-.58-1.56-1.2-2.43-1.85-4.96-3.73-10.59-7.95-11.48-12.93-.53-2.97.35-6.28,2.55-9.57,5.56-8.31,15.11-12.3,24.34-10.18h0c10.66,2.46,18.02,12.85,17.1,24.17l-2.11,26.06c-.09,1.13-.83,2.17-1.87,2.62-.65.29-1.39.33-2.07.15ZM271.9,173.28h0c-6.71-1.55-13.71,1.44-17.83,7.6-.9,1.35-1.91,3.32-1.6,5.06.46,2.6,5.88,6.66,9.11,9.09.92.69,1.79,1.34,2.56,1.95,4.64,3.67,9.31,7.3,13.98,10.94l4.48,3.49,1.66-20.45c.67-8.3-4.66-15.9-12.34-17.67Z"/>
          </g>
        </g>
      </g>
      <path class="cls-3" d="M152.35,215.41c-14.76-14.65-42.89,11.83-54.42,23.68-11.53,11.85-38.13,39.84-23.27,54.59,15.27,15.16,47.77-16.28,54.1-22.88,6.33-6.61,38.77-40.33,23.59-55.39Z"/>
      <path class="cls-3" d="M108.35,315.47c.33,7.1.88,42.65-18.73,42.71-19.61.06-20.06-31.52-20.53-44.36-.47-12.84.26-40.9,18.46-41.34,20.07-.49,20.48,35.88,20.81,42.99Z"/>
      <path class="cls-3" d="M178.8,234.6c5.96,4.62,35.04,28.63,21.6,44.51-13.44,15.88-39.25-5.48-49.94-13.94-10.69-8.46-32.85-28.34-20.69-43.34,13.41-16.54,43.06,8.15,49.02,12.77Z"/>
      <path class="cls-3" d="M168.92,196.37c6.78-1.73,40.95-9.36,44.93,9.53,3.98,18.9-26.38,25.64-38.68,28.65-12.29,3.02-39.49,7.92-43.55-9.54-4.48-19.25,30.51-26.91,37.29-28.65Z"/>
      <path class="cls-3" d="M117.1,191.85c-.39-5.95-1.2-35.72,19.88-36.18,21.08-.46,21.75,25.99,22.33,36.74.58,10.75-.03,34.27-19.59,35.02-21.57.82-22.23-29.64-22.62-35.59Z"/>
      <path class="cls-3" d="M83.5,321.69c-3.05,6.21-19.24,36.77-35.98,27.63-16.75-9.13-2.33-36.27,3.29-47.44,5.62-11.17,19.38-34.74,35.1-26.59,17.33,8.99.64,40.19-2.41,46.39Z"/>
      <g>
        <path class="cls-3" d="M138.05,124.19c3.92,4.47,22.73,27.53,7.69,39.61-15.04,12.07-31.72-8.44-38.72-16.6-7-8.17-20.95-27.08-7.19-38.53,15.17-12.63,34.29,11.05,38.22,15.53Z"/>
        <path class="cls-3" d="M148.41,127.67c.93,5.67,4.57,34.17-13.93,36.39-18.49,2.22-21.69-23.11-23.25-33.38-1.57-10.27-3.34-32.89,13.78-35.25,18.88-2.61,22.46,26.57,23.39,32.24Z"/>
        <path class="cls-3" d="M170.65,149.3c5.46,1.43,29.89,10.06,25.75,27.05s-28.07,10.22-37.91,7.52c-9.84-2.7-30.85-10.14-26.13-26.46,5.21-17.99,32.82-9.54,38.29-8.11Z"/>
        <path class="cls-3" d="M201.72,173.29c2.63.63,3.03,3.02,2.36,5.81s-2.15,4.9-4.77,4.27c-2.63-.63-5.22-3.86-4.56-6.65.67-2.78,4.34-4.06,6.97-3.43Z"/>
      </g>
      <path class="cls-3" d="M.3,219.64c2.02-2.57,4.91-1.54,6.45-.52l15.82,11.01.28-.26c12.01-11.83,35.55,4.72,40.57,7.87,5.35,3.36,31.47,21.06,20.39,37.1-11.08,16.04-34.27.28-43.86-5.89-8.97-5.78-27.02-19.21-21.12-33.26-.53-.4-7.48-5.6-13.28-8.49-4.71-2.35-6.27-6.01-5.25-7.56Z"/>
      <g>
        <path class="cls-1" d="M210.77,85.88l-8.37-28.18c-.91-3.07-3.31-5.47-6.38-6.38l-28.18-8.37,28.18-8.37c3.07-.91,5.47-3.31,6.38-6.38L210.77,0l8.37,28.18c.91,3.07,3.31,5.47,6.38,6.38l28.18,8.37-28.18,8.37c-3.07.91-5.47,3.31-6.38,6.38l-8.37,28.18Z"/>
        <path class="cls-1" d="M283.13,132.25l-6.51-21.92c-.71-2.39-2.58-4.25-4.96-4.96l-21.92-6.51,21.92-6.51c2.39-.71,4.25-2.58,4.96-4.96l6.51-21.92,6.51,21.92c.71,2.39,2.58,4.25,4.96,4.96l21.92,6.51-21.92,6.51c-2.39.71-4.25,2.58-4.96,4.96l-6.51,21.92Z"/>
        <path class="cls-1" d="M224.04,162.2l-4.06-13.66c-.44-1.49-1.61-2.65-3.09-3.09l-13.66-4.06,13.66-4.06c1.49-.44,2.65-1.61,3.09-3.09l4.06-13.66,4.06,13.66c.44,1.49,1.61,2.65,3.09,3.09l13.66,4.06-13.66,4.06c-1.49.44-2.65,1.61-3.09,3.09l-4.06,13.66Z"/>
      </g>
    </g>
  </g>
</svg>