<?xml version="1.0" encoding="UTF-8"?>
<svg id="Layer_2" data-name="Layer 2" xmlns="http://www.w3.org/2000/svg" viewBox="0 0 100 79.01">
  <defs>
    <style>
      .cls-1 {
        fill: #d95436;
        stroke-width: 0px;
      }

      .cls-2 {
        opacity: .7;
      }
    </style>
  </defs>
  <g id="Design">
    <g>
      <g class="cls-2">
        <path class="cls-1" d="M67.18,47.43c0-8.75-16.25-9.3-23.21-9.24-6.96.07-23.2.42-23.2,9.24s19.02,9.44,22.87,9.37c3.85-.07,23.54-.38,23.54-9.37Z"/>
      </g>
      <g class="cls-2">
        <path class="cls-1" d="M28.67,65.03c-1.1,2.78-7.01,16.53-14.55,13.17-7.54-3.35-2.27-15.56-.24-20.57,2.03-5.01,7.14-15.66,14.21-12.69,7.79,3.27,1.68,17.31.58,20.09Z"/>
      </g>
      <g class="cls-2">
        <path class="cls-1" d="M74.43,57.66c1.33,2.88,7.51,17.5-.59,20.81-8.1,3.31-13.58-9.68-15.93-14.91-2.35-5.24-6.75-16.96.71-20.2,8.22-3.56,14.49,11.41,15.81,14.3Z"/>
      </g>
      <g class="cls-2">
        <path class="cls-1" d="M77.67,45.35c2.79.96,16.56,6.18,13.59,13.75-2.97,7.56-15.21,2.91-20.23,1.12-5.02-1.78-15.71-6.35-13.1-13.43,2.88-7.8,16.95-2.4,19.74-1.44Z"/>
      </g>
      <g class="cls-2">
        <path class="cls-1" d="M66.3,9.19c1.97,1.55,11.53,9.63,6.25,15.79-5.29,6.16-13.77-1.03-17.3-3.87-3.53-2.84-10.76-9.58-5.96-15.38,5.3-6.4,15.04,1.92,17.01,3.46Z"/>
      </g>
      <g class="cls-2">
        <path class="cls-1" d="M69.44,9.08c1.38,1.99,7.93,12.15,1.31,16.34s-12.42-4.85-14.88-8.46c-2.46-3.62-7.23-11.89-1.15-15.89,6.7-4.41,13.35,6.02,14.73,8.01Z"/>
      </g>
      <g class="cls-2">
        <path class="cls-1" d="M83.77,18.67c2.37.15,13.16,1.72,12.84,9.07-.32,7.19-10.76,6.5-15.04,6.19s-13.57-1.68-12.94-8.8c.69-7.85,12.78-6.61,15.15-6.47Z"/>
      </g>
      <g class="cls-2">
        <path class="cls-1" d="M55.76,35.73c.82-2.37,5.38-14.04,13.63-10.78,8.25,3.27,4.18,13.64,2.65,17.9-1.54,4.26-5.62,13.28-13.33,10.37-8.5-3.21-3.77-15.13-2.95-17.5Z"/>
      </g>
      <g class="cls-2">
        <path class="cls-1" d="M21.81,64.48c-2.21,1.9-13.53,11.04-18.5,4.73-4.97-6.31,5.1-14.42,9.13-17.81,4.02-3.39,13.25-10.23,17.98-4.48,5.22,6.35-6.4,15.65-8.61,17.55Z"/>
      </g>
      <g class="cls-2">
        <path class="cls-1" d="M98.55,26.05c1.14.05,1.5,1,1.45,2.21s-.49,2.2-1.62,2.15-2.47-1.17-2.42-2.37c.05-1.2,1.46-2.03,2.6-1.98Z"/>
      </g>
      <g class="cls-2">
        <path class="cls-1" d="M.24,19.23c1.05-.89,2.15-.22,2.7.33l5.6,5.87.14-.08c5.95-3.87,14.26,4.93,16.07,6.66,1.92,1.83,11.21,11.33,5.29,17.01-5.92,5.68-14.16-2.76-17.59-6.12-3.21-3.14-9.53-10.19-5.91-15.49-.18-.21-2.61-2.94-4.76-4.62C.03,21.42-.31,19.78.24,19.23Z"/>
      </g>
    </g>
  </g>
</svg>