<?xml version="1.0" encoding="UTF-8"?>
<svg id="Layer_2" data-name="Layer 2" xmlns="http://www.w3.org/2000/svg" viewBox="0 0 150.75 86.01">
  <defs>
    <style>
      .cls-1, .cls-2 {
        fill: #d95436;
        stroke-width: 0px;
      }

      .cls-2 {
        fill-rule: evenodd;
      }
    </style>
  </defs>
  <g id="Design">
    <g>
      <path class="cls-1" d="M145.05,2.97l-5.37-2.97-22.19,40.09c-7-2.24-14.86.69-18.56,7.37-4.2,7.59-1.44,17.19,6.15,21.39,7.59,4.2,17.19,1.44,21.39-6.15,3.69-6.67,2.01-14.89-3.61-19.64l9.94-17.95,8.88,4.91,2.97-5.37-8.88-4.91,3.14-5.67,8.88,4.91,2.97-5.37-8.88-4.91,3.18-5.74ZM121.11,59.72c-2.56,4.63-8.42,6.31-13.05,3.75s-6.32-8.42-3.75-13.05c2.56-4.63,8.42-6.31,13.05-3.75,4.63,2.56,6.32,8.42,3.75,13.05Z"/>
      <g>
        <path class="cls-2" d="M52.66,52.2c.16-.55.06-1.09-.27-1.55-3.22-4.5-3.51-9.69-2.62-15.03.03-.18.04-.36.02-.53.13-.27.21-.58.21-.91h0c0-1.15-.94-2.08-2.08-2.08H9.58c-1.15,0-2.08.94-2.08,2.08h0c0,1.15.94,2.08,2.08,2.08h32.8,0c1.11.05,2,.97,2,2.08s-.94,2.08-2.09,2.08h-24.7c-1.15,0-2.08.94-2.08,2.08s.94,2.08,2.08,2.08h23.08c1.15,0,2.08.94,2.08,2.08s-.94,2.08-2.08,2.08H2.08c-1.15,0-2.08.94-2.08,2.08h0c0,1.15.94,2.08,2.08,2.08h29.17c1.15,0,2.08.94,2.08,2.08s-.94,2.08-2.08,2.08H10.58c-1.15,0-2.08.94-2.08,2.08s.94,2.08,2.08,2.08h7.9c-4.95,7.42-8.93,15.26-11.2,22.29-.28.85.07,1.75.85,2.2.77.45,1.73.3,2.33-.37,11.68-12.97,25.01-25.32,41.16-32.01.53-.22.89-.62,1.05-1.17Z"/>
        <path class="cls-2" d="M25.47,27.92h5.41c1.15,0,2.08-.94,2.08-2.08s-.94-2.08-2.08-2.08h-5.41c-1.15,0-2.08.94-2.08,2.08s.94,2.08,2.08,2.08Z"/>
        <path class="cls-2" d="M73.59,41.06c-3.26-4.74-2.85-11.49-2.03-16.03.2-1.1-.19-2.15-1.06-2.85-.87-.7-1.98-.86-3.01-.43-1.37.57-2.66,1.24-3.85,2h-23.58c-1.15,0-2.08.94-2.08,2.08s.94,2.08,2.08,2.08h23.91c1.15,0,2.08.94,2.08,2.08s-.94,2.08-2.08,2.08h-7.66c-1.26,2.87-1.83,6.22-1.51,10.03.81,9.69,13.23,18.07,13.23,18.07l-22.46,10.36c-1.11.51-1.67,1.73-1.33,2.9.34,1.17,1.46,1.91,2.67,1.76,11.56-1.46,26.65-3.54,34.3-5.39,13.43-3.23,10.7-11.51,7.57-14.64-3.13-3.13-9.85-6.36-15.2-14.14Z"/>
        <path class="cls-2" d="M127.5,10.34h-6.1c-1.34-4.93-5.85-8.56-11.2-8.56-6.41,0-11.61,5.2-11.61,11.61s5.2,11.61,11.61,11.61,11.61-5.2,11.61-11.61c0-.03,0-.06,0-.09h5.69c.77,0,1.4-.63,1.4-1.4v-.17c0-.77-.63-1.4-1.4-1.4Z"/>
        <path class="cls-2" d="M116.33,35.93c-2.14,0-4.06.94-5.38,2.42-5.26-1.16-10.21-3.67-12.37-8.81-5.55-13.23-6.41-24.56-22.46-28.4-9.88-2.36-23.74,2.38-32.58,7.35-1.13.64-1.67,1.93-1.31,3.18.35,1.25,1.49,2.07,2.79,2.02,6.64-.27,14.76-.39,19.44.3,8.89,1.31,14.34,7.88,18.48,18.48,3.96,10.13,16.12,16.28,27.41,14.69,1.3,1.93,3.5,3.2,5.99,3.2,3.98,0,7.22-3.23,7.22-7.22s-3.23-7.22-7.22-7.22Z"/>
      </g>
    </g>
  </g>
</svg>