<?xml version="1.0" encoding="UTF-8"?>
<svg id="Layer_2" data-name="Layer 2" xmlns="http://www.w3.org/2000/svg" viewBox="0 0 100 102.78">
  <defs>
    <style>
      .cls-1 {
        fill: #1a1e43;
        stroke-width: 0px;
      }
    </style>
  </defs>
  <g id="Design">
    <path class="cls-1" d="M98.75,95.52l-20.29-20.29c8.06-8.92,12.66-21.02,11.5-34.21C88.11,20.18,71.65,2.98,50.89.37,20.55-3.46-4.93,23.11.81,53.74c3.37,17.97,17.81,32.28,35.78,35.61,13.42,2.49,25.98-1.1,35.59-8.37l20.55,20.55c1.66,1.66,4.35,1.66,6.01,0h0c1.66-1.66,1.66-4.35,0-6.01ZM8.81,49.83C5.77,25.95,25.95,5.77,49.83,8.81c16.28,2.07,29.43,15.21,31.49,31.49,3.04,23.88-17.14,44.06-41.03,41.03-16.28-2.07-29.42-15.22-31.49-31.49Z"/>
  </g>
</svg>