<?xml version="1.0" encoding="UTF-8"?>
<svg id="Layer_2" data-name="Layer 2" xmlns="http://www.w3.org/2000/svg" viewBox="0 0 100 43.36">
  <defs>
    <style>
      .cls-1 {
        fill: #1a1e43;
        stroke-width: 0px;
      }
    </style>
  </defs>
  <g id="Design">
    <path class="cls-1" d="M50,43.36c-.67,0-1.34-.14-1.96-.43-.63-.29-1.13-.51-46.16-34.44C-.2,6.93-.62,3.97.95,1.88,2.52-.2,5.48-.62,7.57.95c14.41,10.86,35.16,26.45,42.43,31.85,7.27-5.39,28.02-20.99,42.43-31.85,2.08-1.57,5.05-1.15,6.62.93,1.57,2.08,1.15,5.05-.93,6.62-45.03,33.93-45.53,34.15-46.16,34.44-.62.28-1.29.43-1.96.43Z"/>
  </g>
</svg>