<?xml version="1.0" encoding="UTF-8"?>
<svg id="Layer_2" data-name="Layer 2" xmlns="http://www.w3.org/2000/svg" viewBox="0 0 93.33 100">
  <defs>
    <style>
      .cls-1 {
        fill: gray;
        stroke-width: 0px;
      }
    </style>
  </defs>
  <g id="Design">
    <path class="cls-1" d="M89.02,13.74l-11.51-10.38c-5.35-4.83-13.63-4.4-18.46.95L.84,68.86c-.56.62-.86,1.42-.84,2.26l.48,25.67c.02.91.41,1.77,1.08,2.37.67.61,1.57.91,2.47.83l25.58-2.17c.83-.07,1.6-.45,2.16-1.07l58.2-64.55c4.83-5.35,4.4-13.63-.95-18.46ZM73.12,8.23l11.51,10.38c2.67,2.41,2.88,6.53.48,9.2l-9.15,10.15-21.19-19.11,9.15-10.15c2.41-2.67,6.53-2.88,9.2-.48ZM6.97,93.16l-.39-20.87L50.38,23.72l21.19,19.11-43.8,48.57-20.8,1.77Z"/>
  </g>
</svg>