<?xml version="1.0" encoding="UTF-8"?>
<svg id="Layer_2" data-name="Layer 2" xmlns="http://www.w3.org/2000/svg" viewBox="0 0 100 100">
  <defs>
    <style>
      .cls-1 {
        fill: #fbb03b;
      }

      .cls-1, .cls-2 {
        stroke-width: 0px;
      }

      .cls-2 {
        fill: #fff;
      }
    </style>
  </defs>
  <g id="Design">
    <g>
      <rect class="cls-1" x="0" y="0" width="100" height="100" rx="50" ry="50"/>
      <path class="cls-2" d="M81.21,46.76c-4.26,4.26-11.19,4.26-15.45,0-.03-.03-.07-.07-.1-.1l-19,19s.07.07.1.1c4.26,4.26,4.26,11.19,0,15.45-4.26,4.26-11.19,4.26-15.45,0-2.58-2.58-3.59-6.13-3.05-9.48-3.35.54-6.9-.48-9.47-3.05-4.26-4.26-4.26-11.19,0-15.45,4.26-4.26,11.19-4.26,15.45,0,.03.03.07.07.1.1l19-19s-.07-.07-.1-.1c-4.26-4.26-4.26-11.19,0-15.45,4.26-4.26,11.19-4.26,15.45,0,2.58,2.58,3.59,6.13,3.05,9.48,3.35-.54,6.9.48,9.47,3.05,4.26,4.26,4.26,11.19,0,15.45ZM42.08,64.39l22.32-22.32c.96-.96,2.56-.75,3.24.41.29.49.64.94,1.05,1.35,2.65,2.65,6.96,2.65,9.6,0,2.65-2.65,2.65-6.96,0-9.6-2.63-2.63-6.92-2.64-9.57-.04l-.04.04c-.81.81-2.12.81-2.92,0-.81-.81-.81-2.12,0-2.92,2.65-2.65,2.65-6.96,0-9.6s-6.96-2.65-9.6,0c-2.65,2.65-2.65,6.96,0,9.6.41.41.86.76,1.35,1.05,1.16.69,1.37,2.29.41,3.24l-22.32,22.32c-.96.96-2.56.75-3.24-.41-.29-.49-.64-.94-1.05-1.35-2.65-2.65-6.96-2.65-9.6,0-2.65,2.65-2.65,6.96,0,9.6,2.63,2.63,6.93,2.65,9.57.03l.02-.02h.01c.81-.82,2.12-.82,2.92-.01s.81,2.12,0,2.92c-2.65,2.65-2.65,6.96,0,9.6s6.96,2.65,9.6,0,2.65-6.96,0-9.6c-.41-.41-.86-.76-1.35-1.05-1.16-.69-1.37-2.29-.41-3.24Z"/>
    </g>
  </g>
</svg>