<?xml version="1.0" encoding="UTF-8"?>
<svg id="Layer_2" data-name="Layer 2" xmlns="http://www.w3.org/2000/svg" viewBox="0 0 164.36 150.42">
  <defs>
    <style>
      .cls-1 {
        fill: #d95436;
        stroke-width: 0px;
      }
    </style>
  </defs>
  <g id="Design">
    <path class="cls-1" d="M162.25,82.19l-37.37-15.57-15.57-37.37c-1.07-2.55-5.26-2.55-6.33,0l-15.57,37.37-37.37,15.57c-1.28.53-2.11,1.78-2.11,3.16s.83,2.63,2.11,3.16l37.37,15.57,15.57,37.37c.53,1.28,1.78,2.11,3.16,2.11s2.63-.83,3.16-2.11l15.57-37.37,37.37-15.57c1.28-.53,2.11-1.78,2.11-3.16s-.83-2.63-2.11-3.16ZM72.99,34.17l-24.05-8.02L40.92,2.1c-.94-2.79-5.57-2.79-6.5,0l-8.03,24.05L2.34,34.17c-1.4.47-2.34,1.78-2.34,3.25s.95,2.78,2.34,3.25l24.06,8.02,8.02,24.06c.47,1.39,1.77,2.34,3.25,2.34s2.78-.95,3.25-2.34l8.02-24.06,24.06-8.02c1.39-.47,2.34-1.77,2.34-3.25s-.95-2.78-2.34-3.25ZM59.29,123.19l-13.79-4.6-4.6-13.79c-.94-2.79-5.57-2.79-6.5,0l-4.6,13.79-13.79,4.6c-1.39.47-2.34,1.78-2.34,3.25s.95,2.78,2.34,3.25l13.79,4.6,4.6,13.79c.47,1.39,1.77,2.34,3.25,2.34s2.78-.95,3.25-2.34l4.6-13.79,13.79-4.6c1.39-.47,2.34-1.77,2.34-3.25s-.95-2.78-2.34-3.25Z"/>
  </g>
</svg>