<?xml version="1.0" encoding="UTF-8"?>
<svg id="Layer_2" data-name="Layer 2" xmlns="http://www.w3.org/2000/svg" viewBox="0 0 114.23 142.67">
  <defs>
    <style>
      .cls-1 {
        fill: #d95436;
        stroke-width: 0px;
      }
    </style>
  </defs>
  <g id="Design">
    <path class="cls-1" d="M35.67.19c-5.89,1.11-9.77,6.79-8.66,12.68l.93,4.94C10.44,26.02-.02,45.24,3.73,65.12l6.7,35.56,85.33-16.09-6.7-35.56c-3.75-19.88-20.49-33.97-39.78-35.25l-.93-4.94C47.24,2.96,41.56-.92,35.67.19ZM6,116.24c-3.94.68-6.58,4.43-5.89,8.37.68,3.94,4.43,6.58,8.37,5.89.07-.01.13-.02.2-.04l37.47-7.06c-.84,2.4-1.04,4.97-.58,7.47,1.48,7.85,9.05,13.02,16.9,11.54,7.85-1.48,13.02-9.05,11.54-16.9-.48-2.5-1.61-4.82-3.27-6.75l37.49-7.07c3.94-.68,6.58-4.43,5.89-8.37s-4.43-6.58-8.37-5.89c-.07.01-.13.02-.2.04L6,116.24Z"/>
  </g>
</svg>