<?xml version="1.0" encoding="UTF-8"?>
<svg id="Layer_2" data-name="Layer 2" xmlns="http://www.w3.org/2000/svg" viewBox="0 0 100 100">
  <defs>
    <style>
      .cls-1 {
        fill: #d95436;
        stroke-width: 0px;
      }
    </style>
  </defs>
  <g id="Design">
    <path class="cls-1" d="M58.59,50L98.22,10.37c2.37-2.37,2.37-6.22,0-8.59-2.37-2.37-6.22-2.37-8.59,0l-39.63,39.63L10.37,1.78C8-.59,4.15-.59,1.78,1.78-.59,4.15-.59,8,1.78,10.37l39.63,39.63L1.78,89.63c-2.37,2.37-2.37,6.22,0,8.59,2.37,2.37,6.22,2.37,8.59,0l39.63-39.63,39.63,39.63c2.37,2.37,6.22,2.37,8.59,0,2.37-2.37,2.37-6.22,0-8.59l-39.63-39.63Z"/>
  </g>
</svg>