<?xml version="1.0" encoding="UTF-8"?>
<svg id="Layer_2" data-name="Layer 2" xmlns="http://www.w3.org/2000/svg" viewBox="0 0 115.99 144.73">
  <defs>
    <style>
      .cls-1 {
        fill: #d95436;
        stroke-width: 0px;
      }
    </style>
  </defs>
  <g id="Design">
    <path class="cls-1" d="M57.99,0c-5.99,0-10.85,4.86-10.85,10.85v5.03C28.42,20.71,14.58,37.66,14.58,57.89v36.18h86.84v-36.18c0-20.23-13.84-37.18-32.56-42.01v-5.03c0-5.99-4.86-10.85-10.85-10.85ZM7.34,108.55c-4-.06-7.28,3.14-7.34,7.13-.06,4,3.14,7.28,7.13,7.34.07,0,.14,0,.2,0h38.13c-1.27,2.2-1.95,4.69-1.95,7.24,0,7.99,6.48,14.47,14.47,14.47s14.47-6.48,14.47-14.47c0-2.54-.69-5.04-1.96-7.24h38.15c4,.06,7.28-3.14,7.34-7.13s-3.14-7.28-7.13-7.34c-.07,0-.14,0-.2,0H7.34Z"/>
  </g>
</svg>