<?xml version="1.0" encoding="UTF-8"?>
<svg id="Layer_2" data-name="Layer 2" xmlns="http://www.w3.org/2000/svg" viewBox="0 0 100 100">
  <defs>
    <style>
      .cls-1 {
        fill: #d95436;
        stroke-width: 0px;
      }
    </style>
  </defs>
  <g id="Design">
    <g>
      <path class="cls-1" d="M94.13,100c-3.24,0-5.87-2.63-5.87-5.87V11.74H5.87c-3.24,0-5.87-2.63-5.87-5.87S2.63,0,5.87,0h88.26C97.37,0,100,2.63,100,5.87v88.26c0,3.24-2.63,5.87-5.87,5.87Z"/>
      <path class="cls-1" d="M8.45,97.42c-1.5,0-3.01-.57-4.15-1.72-2.29-2.29-2.29-6.01,0-8.3L89.98,1.72c2.29-2.29,6.01-2.29,8.3,0,2.29,2.29,2.29,6.01,0,8.3L12.6,95.7c-1.15,1.15-2.65,1.72-4.15,1.72Z"/>
    </g>
  </g>
</svg>