<?xml version="1.0" encoding="UTF-8"?>
<svg id="Layer_2" data-name="Layer 2" xmlns="http://www.w3.org/2000/svg" viewBox="0 0 146.9 163.32">
  <defs>
    <style>
      .cls-1 {
        fill: #d95436;
        stroke-width: 0px;
      }
    </style>
  </defs>
  <g id="Design">
    <g>
      <path class="cls-1" d="M132.89,20.49h-34.73v-4.16c0-9.01-7.33-16.33-16.33-16.33h-16.75c-9.01,0-16.33,7.33-16.33,16.33v4.16H14.01c-7.74,0-14.01,6.27-14.01,14.01v5.96c0,1.32,1.07,2.39,2.39,2.39h142.12c1.32,0,2.39-1.07,2.39-2.39v-5.96c0-7.74-6.27-14.01-14.01-14.01ZM58.75,16.33c0-3.49,2.84-6.33,6.33-6.33h16.75c3.49,0,6.33,2.84,6.33,6.33v4.16h-29.41v-4.16Z"/>
      <path class="cls-1" d="M10.63,53.58l12.83,97.71c1.13,6.92,7.45,12.03,14.87,12.03h70.24c7.43,0,13.75-5.11,14.88-12.03l12.82-97.71H10.63ZM48.3,148.5c-.19.02-.38.03-.56.03-2.66,0-4.95-2.01-5.23-4.71l-7.4-69.63c-.3-2.89,1.79-5.48,4.69-5.79,2.89-.3,5.48,1.79,5.79,4.68l7.39,69.63c.31,2.89-1.79,5.48-4.68,5.79ZM78.72,143.26c0,2.91-2.36,5.27-5.27,5.27s-5.26-2.36-5.26-5.27v-69.62c0-2.91,2.35-5.27,5.26-5.27s5.27,2.36,5.27,5.27v69.62ZM111.79,74.19l-7.39,69.63c-.29,2.7-2.57,4.71-5.23,4.71-.19,0-.37-.01-.56-.03-2.89-.31-4.99-2.9-4.68-5.79l7.39-69.63c.31-2.89,2.89-4.97,5.79-4.68,2.89.31,4.99,2.9,4.68,5.79Z"/>
    </g>
  </g>
</svg>