<?xml version="1.0" encoding="UTF-8"?>
<svg id="Layer_2" data-name="Layer 2" xmlns="http://www.w3.org/2000/svg" viewBox="0 0 174.5 50">
  <defs>
    <style>
      .cls-1 {
        fill: #fff;
        stroke-width: 0px;
      }
    </style>
  </defs>
  <g id="Design">
    <g>
      <g>
        <circle class="cls-1" cx="23.13" cy="12.53" r="12.53"/>
        <path class="cls-1" d="M0,50c0-11.62,10.36-21.05,23.13-21.05s23.13,9.42,23.13,21.05"/>
      </g>
      <g>
        <path class="cls-1" d="M75.03,28.52h-5.63v9.53h-5.5V11.54h11.54c2.66,0,4.78.68,6.37,2.05s2.37,3.48,2.37,6.35c0,3.13-.79,5.34-2.37,6.63-1.58,1.29-3.84,1.94-6.78,1.94ZM77.62,22.99c.72-.63,1.08-1.64,1.08-3.02s-.36-2.36-1.09-2.95c-.73-.59-1.74-.88-3.05-.88h-5.16v7.8h5.16c1.31,0,2.33-.32,3.06-.95Z"/>
        <path class="cls-1" d="M97.78,23.18c-2.06,0-3.45.67-4.15,2.01-.4.76-.59,1.92-.59,3.49v9.37h-5.16v-19.6h4.89v3.42c.79-1.31,1.48-2.2,2.07-2.68.96-.8,2.2-1.21,3.74-1.21.1,0,.18,0,.24,0,.07,0,.21.02.44.03v5.25c-.32-.04-.61-.06-.86-.07-.25-.01-.46-.02-.61-.02Z"/>
        <path class="cls-1" d="M118.6,20.93c1.65,2.07,2.48,4.53,2.48,7.35s-.83,5.34-2.48,7.38c-1.65,2.04-4.16,3.07-7.53,3.07s-5.88-1.02-7.53-3.07c-1.65-2.04-2.48-4.5-2.48-7.38s.83-5.28,2.48-7.35c1.65-2.07,4.17-3.11,7.53-3.11s5.88,1.04,7.53,3.11ZM111.05,22.15c-1.5,0-2.65.53-3.46,1.59-.81,1.06-1.21,2.57-1.21,4.54s.4,3.48,1.21,4.55c.81,1.07,1.96,1.6,3.46,1.6s2.65-.53,3.45-1.6c.8-1.07,1.21-2.58,1.21-4.55s-.4-3.48-1.21-4.54c-.8-1.06-1.95-1.59-3.45-1.59Z"/>
        <path class="cls-1" d="M133.93,11.38v4.17c-.29-.04-.77-.06-1.45-.08s-1.14.13-1.4.45-.39.67-.39,1.05v1.65h3.36v3.61h-3.36v15.8h-5.11v-15.8h-2.86v-3.61h2.8v-1.26c0-2.1.35-3.54,1.06-4.33.74-1.17,2.54-1.76,5.38-1.76.32,0,.62,0,.88.03.26.02.62.05,1.08.08Z"/>
        <path class="cls-1" d="M142.28,11.38v4.73h-5.2v-4.73h5.2ZM142.28,18.45v19.6h-5.2v-19.6h5.2Z"/>
        <path class="cls-1" d="M147.35,11.54h5.12v26.5h-5.12V11.54Z"/>
        <path class="cls-1" d="M174.24,32.29c-.13,1.16-.74,2.34-1.82,3.54-1.68,1.9-4.03,2.86-7.05,2.86-2.49,0-4.69-.8-6.6-2.41-1.91-1.61-2.86-4.22-2.86-7.84,0-3.39.86-5.99,2.58-7.8,1.72-1.81,3.95-2.72,6.7-2.72,1.63,0,3.1.31,4.41.92,1.31.61,2.38,1.58,3.24,2.89.77,1.16,1.26,2.51,1.49,4.05.13.9.19,2.19.16,3.88h-13.41c.07,1.97.69,3.34,1.85,4.13.71.49,1.56.74,2.55.74,1.05,0,1.91-.3,2.57-.9.36-.32.68-.77.95-1.35h5.23ZM169.17,26.29c-.08-1.35-.49-2.38-1.23-3.08s-1.65-1.05-2.74-1.05c-1.19,0-2.11.37-2.76,1.11-.65.74-1.06,1.75-1.23,3.02h7.96Z"/>
      </g>
    </g>
  </g>
</svg>