<?xml version="1.0" encoding="UTF-8"?>
<svg id="Layer_2" data-name="Layer 2" xmlns="http://www.w3.org/2000/svg" viewBox="0 0 157.64 50">
  <defs>
    <style>
      .cls-1 {
        fill: #fff;
        stroke-width: 0px;
      }
    </style>
  </defs>
  <g id="Design">
    <g>
      <g>
        <path class="cls-1" d="M0,12.12h4.84v18.98h11.46v4.16H0V12.12Z"/>
        <path class="cls-1" d="M33.55,20.31c1.44,1.81,2.17,3.95,2.17,6.42s-.72,4.66-2.17,6.45c-1.44,1.78-3.64,2.68-6.58,2.68s-5.13-.89-6.58-2.68c-1.44-1.78-2.17-3.93-2.17-6.45s.72-4.61,2.17-6.42c1.44-1.81,3.64-2.72,6.58-2.72s5.13.91,6.58,2.72ZM26.96,21.38c-1.31,0-2.32.46-3.02,1.39s-1.06,2.25-1.06,3.96.35,3.04,1.06,3.97,1.71,1.4,3.02,1.4,2.31-.46,3.01-1.4c.7-.93,1.05-2.26,1.05-3.97s-.35-3.04-1.05-3.96c-.7-.93-1.71-1.39-3.01-1.39Z"/>
        <path class="cls-1" d="M43.76,38.26c.48.41,1.29.61,2.43.61,1.61,0,2.69-.54,3.23-1.62.36-.69.53-1.85.53-3.49v-1.1c-.43.73-.89,1.28-1.38,1.65-.89.68-2.05,1.02-3.47,1.02-2.2,0-3.95-.77-5.27-2.32-1.31-1.54-1.97-3.63-1.97-6.27s.63-4.68,1.9-6.41c1.27-1.73,3.06-2.6,5.39-2.6.86,0,1.61.13,2.25.39,1.09.45,1.97,1.28,2.64,2.48v-2.46h4.35v16.23c0,2.21-.37,3.87-1.11,4.99-1.28,1.93-3.73,2.89-7.35,2.89-2.19,0-3.97-.43-5.35-1.29s-2.15-2.14-2.29-3.85h4.87c.13.52.33.9.61,1.13ZM43,29.42c.61,1.44,1.7,2.17,3.27,2.17,1.05,0,1.93-.4,2.65-1.19s1.08-2.05,1.08-3.78c0-1.62-.34-2.86-1.03-3.71-.69-.85-1.6-1.27-2.76-1.27-1.57,0-2.65.74-3.25,2.21-.31.79-.47,1.75-.47,2.9,0,.99.17,1.88.5,2.65Z"/>
        <path class="cls-1" d="M67.48,12.12h4.8v23.14h-4.8V12.12Z"/>
        <path class="cls-1" d="M84.48,21.46c-1.52,0-2.56.64-3.12,1.93-.29.68-.44,1.55-.44,2.61v9.26h-4.46v-17.08h4.32v2.5c.58-.88,1.12-1.51,1.63-1.9.92-.69,2.09-1.04,3.5-1.04,1.77,0,3.22.46,4.34,1.39s1.69,2.46,1.69,4.61v11.52h-4.58v-10.41c0-.9-.12-1.59-.36-2.07-.44-.88-1.28-1.32-2.51-1.32Z"/>
      </g>
      <g>
        <g>
          <rect class="cls-1" x="112.1" y="21.75" width="17.66" height="6.51"/>
          <polygon class="cls-1" points="127.5 32.15 141.66 25 127.5 17.85 127.5 32.15"/>
        </g>
        <polygon class="cls-1" points="118.94 50 157.64 50 157.64 0 118.94 0 118.94 13.68 124.94 13.68 124.94 6 151.63 6 151.63 44 124.94 44 124.94 36.32 118.94 36.32 118.94 50"/>
      </g>
    </g>
  </g>
</svg>