<?xml version="1.0" encoding="UTF-8"?>
<svg id="Layer_2" data-name="Layer 2" xmlns="http://www.w3.org/2000/svg" viewBox="0 0 182.93 50">
  <defs>
    <style>
      .cls-1 {
        fill: #fff;
        stroke-width: 0px;
      }
    </style>
  </defs>
  <g id="Design">
    <g>
      <g>
        <path class="cls-1" d="M0,12.81h4.72v18.55h11.2v4.06H0V12.81Z"/>
        <path class="cls-1" d="M32.78,20.81c1.41,1.77,2.12,3.86,2.12,6.27s-.71,4.55-2.12,6.3c-1.41,1.74-3.55,2.61-6.43,2.61s-5.02-.87-6.43-2.61c-1.41-1.74-2.12-3.84-2.12-6.3s.71-4.51,2.12-6.27c1.41-1.77,3.55-2.65,6.43-2.65s5.02.88,6.43,2.65ZM26.34,21.86c-1.28,0-2.26.45-2.95,1.36-.69.91-1.04,2.2-1.04,3.87s.35,2.97,1.04,3.88c.69.91,1.67,1.37,2.95,1.37s2.26-.45,2.95-1.37c.68-.91,1.03-2.2,1.03-3.88s-.34-2.97-1.03-3.87c-.69-.91-1.67-1.36-2.95-1.36Z"/>
        <path class="cls-1" d="M42.75,38.35c.47.4,1.26.6,2.38.6,1.57,0,2.63-.53,3.16-1.58.35-.68.52-1.81.52-3.41v-1.07c-.42.72-.87,1.25-1.35,1.61-.87.66-2,1-3.39,1-2.15,0-3.86-.75-5.15-2.26-1.28-1.51-1.92-3.55-1.92-6.13s.62-4.57,1.86-6.27c1.24-1.69,2.99-2.54,5.26-2.54.84,0,1.57.13,2.19.38,1.06.44,1.92,1.25,2.58,2.42v-2.41h4.25v15.86c0,2.16-.36,3.78-1.09,4.88-1.25,1.88-3.64,2.82-7.18,2.82-2.14,0-3.88-.42-5.23-1.26-1.35-.84-2.1-2.09-2.24-3.76h4.76c.12.51.32.88.6,1.1ZM42.02,29.71c.59,1.41,1.66,2.12,3.19,2.12,1.02,0,1.89-.39,2.59-1.16.71-.77,1.06-2,1.06-3.69,0-1.58-.34-2.79-1-3.62-.67-.83-1.57-1.24-2.69-1.24-1.53,0-2.59.72-3.18,2.16-.31.77-.46,1.71-.46,2.84,0,.97.16,1.84.49,2.59Z"/>
        <path class="cls-1" d="M76.3,36.05c-3.23,0-5.7-.88-7.41-2.64-2.29-2.16-3.44-5.27-3.44-9.33s1.15-7.25,3.44-9.33c1.71-1.76,4.18-2.64,7.41-2.64s5.7.88,7.41,2.64c2.28,2.08,3.42,5.19,3.42,9.33s-1.14,7.17-3.42,9.33c-1.71,1.76-4.18,2.64-7.41,2.64ZM80.77,29.97c1.09-1.38,1.64-3.34,1.64-5.89s-.55-4.5-1.65-5.88-2.58-2.08-4.46-2.08-3.36.69-4.48,2.07c-1.11,1.38-1.67,3.34-1.67,5.89s.56,4.51,1.67,5.89c1.11,1.38,2.61,2.07,4.48,2.07s3.36-.69,4.46-2.07Z"/>
        <path class="cls-1" d="M101.11,33.06c-.04.05-.14.2-.31.46-.16.26-.36.48-.58.67-.68.61-1.35,1.03-1.99,1.26s-1.39.34-2.25.34c-2.48,0-4.14-.89-5-2.67-.48-.98-.72-2.43-.72-4.34v-10.08h4.48v10.08c0,.95.11,1.67.34,2.15.4.85,1.18,1.27,2.35,1.27,1.49,0,2.52-.6,3.07-1.81.29-.65.43-1.52.43-2.59v-9.1h4.43v16.72h-4.25v-2.36Z"/>
        <path class="cls-1" d="M117.23,32.3v3.27l-2.07.08c-2.07.07-3.48-.29-4.23-1.07-.49-.5-.74-1.27-.74-2.32v-10.29h-2.33v-3.11h2.33v-4.66h4.33v4.66h2.72v3.11h-2.72v8.84c0,.69.09,1.11.26,1.28.17.17.71.25,1.6.25.13,0,.27,0,.42,0,.15,0,.29-.01.44-.02Z"/>
      </g>
      <g>
        <g>
          <rect class="cls-1" x="153.37" y="21.75" width="17.66" height="6.51"/>
          <polygon class="cls-1" points="168.77 32.15 182.93 25 168.77 17.85 168.77 32.15"/>
        </g>
        <polygon class="cls-1" points="176.09 50 137.39 50 137.39 0 176.09 0 176.09 13.68 170.09 13.68 170.09 6 143.39 6 143.39 44 170.09 44 170.09 36.32 176.09 36.32 176.09 50"/>
      </g>
    </g>
  </g>
</svg>