<?xml version="1.0" encoding="UTF-8"?>
<svg id="Layer_2" data-name="Layer 2" xmlns="http://www.w3.org/2000/svg" viewBox="0 0 336.35 351.33">
  <defs>
    <style>
      .cls-1 {
        fill: #d95436;
      }

      .cls-1, .cls-2 {
        stroke-width: 0px;
      }

      .cls-2 {
        fill: #000;
      }

      .cls-3 {
        opacity: .7;
      }
    </style>
  </defs>
  <g id="Design">
    <g>
      <g>
        <path class="cls-2" d="M35.46,257.19H10.38v11.5h21.96v8.69H10.38v20.97H0v-49.95h35.46v8.79Z"/>
        <path class="cls-2" d="M105.76,276.5h-24.3v12.86h27.69v8.99h-37.91v-50.02h36.68v8.86h-26.47v10.62h24.3v8.69Z"/>
        <path class="cls-2" d="M182.14,248.33v8.86h-14.97v41.16h-10.52v-41.16h-15.03v-8.86h40.52Z"/>
        <path class="cls-2" d="M252.04,294.62c-3.73,3.42-8.51,5.12-14.32,5.12-7.19,0-12.85-2.31-16.97-6.92-4.12-4.64-6.18-11-6.18-19.07,0-8.73,2.34-15.46,7.02-20.19,4.07-4.12,9.25-6.18,15.54-6.18,8.42,0,14.57,2.76,18.46,8.28,2.15,3.1,3.3,6.21,3.46,9.33h-10.45c-.68-2.4-1.55-4.21-2.61-5.43-1.9-2.17-4.72-3.26-8.45-3.26s-6.8,1.53-8.99,4.6c-2.19,3.07-3.29,7.4-3.29,13.01s1.16,9.81,3.48,12.61c2.32,2.79,5.27,4.19,8.84,4.19s6.46-1.2,8.38-3.6c1.06-1.29,1.95-3.22,2.65-5.8h10.35c-.91,5.45-3.21,9.89-6.92,13.3Z"/>
        <path class="cls-2" d="M325.26,298.35v-22.33h-19.55v22.33h-10.35v-50.02h10.35v19.07h19.55v-19.07h10.38v50.02h-10.38Z"/>
      </g>
      <g>
        <path class="cls-2" d="M13.91,342.38c.7.83,1.06,1.92,1.06,3.25,0,1.82-.56,3.17-1.68,4.07-1.12.9-2.52,1.35-4.18,1.35H1.62c-.24,0-.44-.08-.6-.24-.16-.16-.24-.36-.24-.6v-17.79c0-.24.08-.44.24-.6.16-.16.36-.24.6-.24h7.37c1.56,0,2.78.43,3.66,1.28.88.85,1.32,2.02,1.32,3.5,0,.98-.24,1.86-.72,2.64-.48.78-1.17,1.34-2.06,1.7,1.11.28,2.02.83,2.72,1.67ZM11.28,334.11c-.6-.58-1.44-.88-2.52-.88H2.57v6.95h6.2c1-.02,1.82-.34,2.46-.97.64-.63.96-1.53.96-2.7,0-1.02-.3-1.82-.9-2.4ZM12.03,348.47c.77-.63,1.15-1.58,1.15-2.84s-.39-2.25-1.18-2.86c-.79-.61-1.8-.92-3.04-.92H2.57v7.56h6.45c1.24,0,2.25-.31,3.02-.94Z"/>
        <path class="cls-2" d="M39.01,350.27c0,.24-.08.44-.25.58s-.36.22-.58.22c-.19,0-.35-.05-.49-.15s-.25-.24-.32-.4l-2.08-5.09h-9.03l-2.06,5.09c-.15.37-.4.56-.75.56-.26,0-.45-.06-.58-.19-.13-.13-.2-.31-.22-.53v-.08c0-.11,0-.19.03-.25l7.34-17.96c.15-.37.43-.56.83-.56.19,0,.35.05.49.15.14.1.25.24.32.4l7.31,17.88c.04.15.06.26.06.33ZM26.89,343.8h7.73l-3.89-9.51-3.84,9.51Z"/>
        <path class="cls-2" d="M62.8,331.81c.14.15.21.33.21.56v17.79c0,.28-.08.5-.25.65-.17.16-.37.24-.61.24-.13,0-.26-.03-.38-.08-.12-.06-.22-.12-.29-.2l-11.93-16.07v15.59c0,.2-.08.38-.24.53-.16.15-.34.22-.54.22-.22,0-.41-.07-.56-.22-.15-.15-.22-.32-.22-.53v-17.88c0-.26.08-.46.24-.61.16-.15.35-.22.57-.22.3,0,.52.1.67.31l11.98,16.15v-15.68c0-.22.07-.41.22-.56.15-.15.33-.22.56-.22.24,0,.43.07.57.22Z"/>
        <path class="cls-2" d="M88.64,350.27c0,.28-.1.5-.29.65s-.41.24-.65.24-.44-.1-.61-.31l-7.76-9.76-3.78,3.56v5.53c-.02.26-.11.47-.28.62-.17.16-.37.24-.61.24-.26,0-.47-.08-.63-.24-.16-.16-.24-.37-.24-.62v-17.74c0-.26.08-.47.25-.63.17-.16.38-.24.64-.24s.47.08.63.24c.16.16.24.37.24.63v10.09l11.23-10.62c.17-.19.37-.28.61-.28.22,0,.41.08.57.25.16.17.24.35.24.56,0,.22-.08.42-.25.58l-7.28,6.81,7.78,9.84c.13.19.19.38.19.58Z"/>
        <path class="cls-2" d="M99.59,350.8c-.17.17-.37.25-.61.25-.26,0-.47-.08-.63-.24-.16-.16-.24-.37-.24-.62v-17.74c0-.26.08-.47.25-.63.17-.16.38-.24.64-.24.24,0,.44.08.61.25.17.17.25.37.25.61v17.74c-.02.24-.11.44-.28.61Z"/>
        <path class="cls-2" d="M125.43,331.81c.14.15.21.33.21.56v17.79c0,.28-.08.5-.25.65-.17.16-.37.24-.61.24-.13,0-.26-.03-.38-.08-.12-.06-.22-.12-.29-.2l-11.93-16.07v15.59c0,.2-.08.38-.24.53-.16.15-.34.22-.54.22-.22,0-.41-.07-.56-.22-.15-.15-.22-.32-.22-.53v-17.88c0-.26.08-.46.24-.61.16-.15.35-.22.57-.22.3,0,.52.1.67.31l11.98,16.15v-15.68c0-.22.07-.41.22-.56.15-.15.33-.22.56-.22.24,0,.43.07.57.22Z"/>
        <path class="cls-2" d="M151.23,341.47c.16.16.24.36.24.6v6.7c0,.32-.14.57-.42.75-.83.58-1.76,1.02-2.78,1.33-1.02.31-2.06.47-3.11.47-1.89,0-3.6-.44-5.12-1.31-1.52-.87-2.72-2.07-3.59-3.59-.87-1.52-1.31-3.23-1.31-5.12s.44-3.6,1.31-5.12c.87-1.52,2.07-2.71,3.59-3.59,1.52-.87,3.22-1.31,5.12-1.31.98,0,1.93.12,2.85.36s1.74.58,2.46,1.03c.26.17.39.4.39.7,0,.24-.08.44-.24.61-.16.17-.34.25-.54.25-.19,0-.35-.05-.5-.14-1.39-.76-2.86-1.14-4.42-1.14s-2.99.36-4.24,1.08-2.23,1.72-2.93,2.99c-.7,1.27-1.06,2.69-1.06,4.27s.35,3,1.06,4.27c.7,1.27,1.68,2.27,2.93,2.99,1.25.72,2.66,1.08,4.24,1.08.8,0,1.6-.11,2.4-.33s1.52-.53,2.15-.92v-5.5h-4.39c-.24,0-.44-.08-.61-.24-.17-.16-.25-.36-.25-.6s.08-.44.25-.6c.17-.16.37-.24.61-.24h5.31c.24,0,.44.08.6.24Z"/>
        <path class="cls-2" d="M189.07,333.73c0,.17-.07.35-.19.56-.17.2-.38.31-.64.31-.15,0-.3-.05-.44-.14-1.48-.98-3.1-1.47-4.86-1.47-1.5,0-2.86.35-4.07,1.06-1.21.71-2.17,1.69-2.86,2.96s-1.04,2.71-1.04,4.32.35,3.11,1.06,4.38c.7,1.27,1.66,2.25,2.88,2.95,1.21.69,2.56,1.04,4.04,1.04,1.76,0,3.37-.48,4.84-1.45.15-.09.31-.14.47-.14.26,0,.47.11.64.33.13.15.19.32.19.53,0,.3-.13.52-.39.67-.72.48-1.61.89-2.67,1.21-1.06.32-2.08.49-3.09.49-1.76,0-3.39-.42-4.88-1.27-1.49-.84-2.68-2.02-3.56-3.54-.88-1.52-1.32-3.25-1.32-5.2s.44-3.57,1.31-5.1c.87-1.53,2.05-2.72,3.53-3.59,1.48-.86,3.12-1.29,4.92-1.29,1.04,0,2.05.15,3.04.45.99.3,1.89.71,2.68,1.25.28.17.42.4.42.69Z"/>
        <path class="cls-2" d="M214.32,346.46c-.8,1.52-1.9,2.71-3.31,3.57-1.41.86-3.01,1.29-4.81,1.29s-3.4-.43-4.81-1.29c-1.41-.86-2.51-2.05-3.31-3.57-.8-1.52-1.2-3.23-1.2-5.14s.4-3.65,1.2-5.17c.8-1.52,1.9-2.71,3.31-3.56,1.41-.85,3.01-1.28,4.81-1.28s3.4.43,4.81,1.28c1.41.85,2.51,2.04,3.31,3.56.8,1.52,1.2,3.24,1.2,5.17s-.4,3.62-1.2,5.14ZM212.77,337c-.64-1.27-1.53-2.26-2.67-2.96-1.14-.7-2.44-1.06-3.91-1.06s-2.77.35-3.91,1.06c-1.14.71-2.03,1.69-2.67,2.96-.64,1.27-.96,2.71-.96,4.32s.32,3.05.96,4.32c.64,1.27,1.53,2.26,2.67,2.96,1.14.7,2.44,1.06,3.91,1.06s2.77-.35,3.91-1.06c1.14-.7,2.03-1.69,2.67-2.96.64-1.27.96-2.71.96-4.32s-.32-3.05-.96-4.32Z"/>
        <path class="cls-2" d="M242.55,331.83c.16.16.24.36.24.6v17.79c0,.24-.08.44-.25.6-.17.16-.37.24-.61.24-.26,0-.47-.08-.64-.24-.17-.16-.25-.36-.25-.6v-15.29l-6.53,9.9c-.19.24-.4.35-.64.33h-.06c-.22,0-.43-.11-.61-.33l-6.53-9.95v15.35c0,.24-.08.44-.24.6-.16.16-.36.24-.6.24s-.44-.08-.58-.24c-.15-.16-.22-.36-.22-.6v-17.79c0-.22.08-.42.24-.58.16-.17.36-.25.6-.25.13,0,.27.03.42.1.15.07.26.15.33.26l7.28,10.93,7.34-10.93c.2-.28.45-.4.75-.36.22,0,.41.08.57.24Z"/>
        <path class="cls-2" d="M263.74,332.3c.82.47,1.45,1.13,1.9,1.97.45.84.68,1.79.68,2.85s-.23,2.02-.68,2.89c-.45.87-1.09,1.56-1.9,2.06-.82.5-1.73.75-2.75.75h-5.75v7.39c0,.24-.08.44-.24.6-.16.16-.36.24-.6.24s-.44-.08-.6-.24c-.16-.16-.24-.36-.24-.6v-17.79c0-.24.08-.44.24-.6.16-.16.36-.24.6-.24h6.59c1.02,0,1.94.24,2.75.71ZM263.6,340.04c.67-.78,1-1.75,1-2.92s-.33-2.08-1-2.81c-.67-.72-1.54-1.08-2.61-1.08h-5.75v7.98h5.75c1.07,0,1.95-.39,2.61-1.17Z"/>
        <path class="cls-2" d="M289.15,350.27c0,.24-.08.44-.25.58s-.36.22-.58.22c-.19,0-.35-.05-.49-.15s-.25-.24-.32-.4l-2.08-5.09h-9.03l-2.06,5.09c-.15.37-.4.56-.75.56-.26,0-.45-.06-.58-.19-.13-.13-.2-.31-.22-.53v-.08c0-.11,0-.19.03-.25l7.34-17.96c.15-.37.43-.56.83-.56.19,0,.35.05.49.15.14.1.25.24.32.4l7.31,17.88c.04.15.06.26.06.33ZM277.03,343.8h7.73l-3.89-9.51-3.84,9.51Z"/>
        <path class="cls-2" d="M312.93,331.81c.14.15.21.33.21.56v17.79c0,.28-.08.5-.25.65-.17.16-.37.24-.61.24-.13,0-.26-.03-.38-.08-.12-.06-.22-.12-.29-.2l-11.93-16.07v15.59c0,.2-.08.38-.24.53-.16.15-.34.22-.54.22-.22,0-.41-.07-.56-.22-.15-.15-.22-.32-.22-.53v-17.88c0-.26.08-.46.24-.61.16-.15.35-.22.57-.22.3,0,.52.1.67.31l11.98,16.15v-15.68c0-.22.07-.41.22-.56.15-.15.33-.22.56-.22.24,0,.43.07.57.22Z"/>
        <path class="cls-2" d="M336.19,332.84l-6.2,8.54v8.84c0,.24-.08.44-.25.6-.17.16-.37.24-.61.24s-.44-.08-.6-.24c-.16-.16-.24-.36-.24-.6v-8.81l-6.23-8.51c-.15-.17-.22-.36-.22-.58s.09-.42.28-.58c.19-.17.39-.25.61-.25.3,0,.53.13.7.39l5.75,7.84,5.62-7.84c.2-.26.44-.39.72-.39.22,0,.42.09.58.26s.25.37.25.57c0,.13-.06.31-.17.53Z"/>
      </g>
      <g>
        <g class="cls-3">
          <path class="cls-1" d="M212.25,130.96c0-24.17-44.87-25.69-64.08-25.5s-64.07,1.17-64.07,25.5,52.53,26.07,63.16,25.89c10.63-.19,65-1.04,65-25.89Z"/>
        </g>
        <g class="cls-3">
          <path class="cls-1" d="M105.91,179.56c-3.03,7.69-19.36,45.64-40.18,36.38-20.82-9.26-6.28-42.96-.67-56.8,5.61-13.84,19.72-43.24,39.23-35.05,21.51,9.03,4.65,47.79,1.62,55.47Z"/>
        </g>
        <g class="cls-3">
          <path class="cls-1" d="M232.27,159.22c3.66,7.96,20.74,48.32-1.64,57.47-22.37,9.15-37.51-26.72-43.98-41.18-6.48-14.46-18.64-46.84,1.95-55.77,22.7-9.84,40,31.52,43.66,39.48Z"/>
        </g>
        <g class="cls-3">
          <path class="cls-1" d="M241.2,125.22c7.69,2.65,45.73,17.07,37.52,37.96-8.21,20.88-41.99,8.03-55.85,3.1-13.86-4.93-43.39-17.54-36.17-37.08,7.96-21.55,46.81-6.63,54.5-3.98Z"/>
        </g>
        <g class="cls-3">
          <path class="cls-1" d="M209.81,25.37c5.44,4.27,31.85,26.59,17.25,43.6-14.59,17.01-38.03-2.85-47.77-10.68-9.74-7.83-29.72-26.45-16.45-42.47,14.63-17.67,41.53,5.29,46.97,9.56Z"/>
        </g>
        <g class="cls-3">
          <path class="cls-1" d="M218.49,25.08c3.82,5.48,21.89,33.55,3.6,45.13-18.28,11.58-34.31-13.38-41.09-23.37-6.78-9.99-19.97-32.82-3.19-43.87,18.5-12.18,36.85,16.63,40.67,22.11Z"/>
        </g>
        <g class="cls-3">
          <path class="cls-1" d="M258.04,51.56c6.55.4,36.33,4.75,35.44,25.05-.87,19.84-29.7,17.96-41.53,17.1-11.83-.86-37.46-4.63-35.74-24.29,1.89-21.68,35.28-18.26,41.83-17.86Z"/>
        </g>
        <g class="cls-3">
          <path class="cls-1" d="M180.7,98.66c2.26-6.54,14.85-38.78,37.63-29.75,22.77,9.03,11.55,37.66,7.31,49.43-4.24,11.77-15.52,36.68-36.8,28.65-23.46-8.86-10.41-41.78-8.14-48.32Z"/>
        </g>
        <g class="cls-3">
          <path class="cls-1" d="M86.96,178.04c-6.1,5.24-37.36,30.48-51.08,13.07-13.71-17.41,14.09-39.81,25.2-49.17,11.11-9.36,36.59-28.26,49.66-12.36,14.41,17.53-17.69,43.22-23.78,48.46Z"/>
        </g>
        <g class="cls-3">
          <path class="cls-1" d="M298.86,71.92c3.14.13,4.13,2.77,4,6.09s-1.34,6.07-4.48,5.94-6.82-3.23-6.69-6.55c.13-3.32,4.04-5.61,7.17-5.48Z"/>
        </g>
        <g class="cls-3">
          <path class="cls-1" d="M27.41,53.1c2.89-2.46,5.94-.62,7.47.9l15.46,16.21.38-.23c16.42-10.68,39.39,13.62,44.37,18.38,5.31,5.07,30.95,31.29,14.61,46.98-16.34,15.69-39.09-7.63-48.58-16.89-8.88-8.66-26.31-28.14-16.33-42.78-.51-.58-7.22-8.11-13.15-12.75-4.81-3.76-5.74-8.3-4.22-9.82Z"/>
        </g>
      </g>
    </g>
  </g>
</svg>